<?xml version="1.0" encoding="UTF-8" standalone="no"?>
<!-- Created with Inkscape (http://www.inkscape.org/) -->

<svg
   xmlns:dc="http://purl.org/dc/elements/1.1/"
   xmlns:cc="http://creativecommons.org/ns#"
   xmlns:rdf="http://www.w3.org/1999/02/22-rdf-syntax-ns#"
   xmlns:svg="http://www.w3.org/2000/svg"
   xmlns="http://www.w3.org/2000/svg"
   xmlns:sodipodi="http://sodipodi.sourceforge.net/DTD/sodipodi-0.dtd"
   xmlns:inkscape="http://www.inkscape.org/namespaces/inkscape"
   version="1.1"
   id="svg2"
   xml:space="preserve"
   width="34.100533"
   height="38.865601"
   viewBox="0 0 34.100533 38.865601"
   sodipodi:docname="Logo_Hordaland fylkeskommune.svg"
   inkscape:version="0.92.3 (2405546, 2018-03-11)"><metadata
     id="metadata8"><rdf:RDF><cc:Work
         rdf:about=""><dc:format>image/svg+xml</dc:format><dc:type
           rdf:resource="http://purl.org/dc/dcmitype/StillImage" /><dc:title></dc:title></cc:Work></rdf:RDF></metadata><defs
     id="defs6" /><sodipodi:namedview
     pagecolor="#ffffff"
     bordercolor="#666666"
     borderopacity="1"
     objecttolerance="10"
     gridtolerance="10"
     guidetolerance="10"
     inkscape:pageopacity="0"
     inkscape:pageshadow="2"
     inkscape:window-width="1920"
     inkscape:window-height="1009"
     id="namedview4"
     showgrid="false"
     inkscape:pagecheckerboard="true"
     fit-margin-top="0"
     fit-margin-left="0"
     fit-margin-right="0"
     fit-margin-bottom="0"
     inkscape:zoom="19.940513"
     inkscape:cx="17.050266"
     inkscape:cy="19.432801"
     inkscape:window-x="0"
     inkscape:window-y="600"
     inkscape:window-maximized="1"
     inkscape:current-layer="g10" /><g
     id="g10"
     inkscape:groupmode="layer"
     inkscape:label="ink_ext_XXXXXX"
     transform="matrix(1.3333333,0,0,-1.3333333,0,38.865599)"><path
       inkscape:connector-curvature="0"
       id="path14"
       style="fill:#e51636;fill-opacity:1;fill-rule:evenodd;stroke:none;stroke-width:0.1"
       d="M 0,29.1492 C 0,18.4941 0.00976563,14.5172 0.565625,12.2734 2.0707,6.35078 7.0832,1.21875 12.8242,0 c 5.7418,1.21875 10.6625,6.35078 12.1676,12.2734 0.5656,2.2438 0.5836,6.2207 0.5836,16.8758 H 0" /><path
       inkscape:connector-curvature="0"
       id="path16"
       style="fill:#fcd006;fill-opacity:1;fill-rule:evenodd;stroke:none;stroke-width:0.1"
       d="m 16.9703,25.0609 c -0.4019,-0.2379 -0.564,-0.539 -0.8176,-0.8785 0,0.3395 -0.2601,0.625 -0.5898,0.625 -0.3227,0 -0.6098,-0.2773 -0.6098,-0.6078 0,-0.3316 0.2871,-0.6082 0.6098,-0.6082 0.0695,0 0.1555,0.0254 0.2246,0.0422 l -0.8344,-1.3469 -1.8343,0.6086 v 1.7399 l 0.7906,-0.4356 0.523,0.4356 v 0.6945 l -0.523,0.4441 -0.7906,-0.4441 0.3558,0.9578 -0.6957,0.7906 -0.7047,-0.7906 0.3477,-0.9578 -0.7918,0.4441 -0.5117,-0.4441 v -0.6945 l 0.5117,-0.4356 0.7918,0.4356 v -1.7399 l -1.8281,-0.6086 -0.84224,1.3469 c 0.07891,-0.0168 0.15664,-0.0422 0.22657,-0.0422 0.33947,0 0.61567,0.2766 0.61567,0.6082 0,0.3305 -0.2762,0.6078 -0.61567,0.6078 -0.32149,0 -0.59141,-0.2855 -0.59141,-0.625 -0.23516,0.3395 -0.41406,0.6406 -0.81797,0.8785 -0.47148,0.2774 -1.37539,0.2688 -1.37539,0.2688 l 2.18477,-2.4344 0.25039,-2.166 c 0.35742,0.4645 1.79918,0.7129 3.16798,0.7129 1.3523,0 2.7758,-0.2442 3.1484,-0.7004 l 0.2266,2.1535 2.1738,2.4344 c 0,0 -0.9035,0.0086 -1.375,-0.2688" /><path
       inkscape:connector-curvature="0"
       id="path62"
       style="fill:#fcd006;fill-opacity:1;fill-rule:evenodd;stroke:none;stroke-width:0.1"
       d="m 19.7434,21.1266 0.2324,-0.6418 0.4379,0.523 -0.8602,0.7215 -0.4422,-0.5223 0.6321,-0.0804" /><path
       inkscape:connector-curvature="0"
       id="path64"
       style="fill:#fcd006;fill-opacity:1;fill-rule:evenodd;stroke:none;stroke-width:0.1"
       d="m 20.0652,19.4742 -0.4968,1.4442 -1.443,0.1812 -1.2363,-1.4601 0.4355,-1.3836 1.5055,-0.2454 c 1.0945,-0.9203 1.3215,-2.7484 0.3988,-3.8511 0.3668,0.0265 1.9055,0.5129 3.2121,2.0695 1.3039,1.557 1.5199,3.1574 1.4863,3.5309 -0.9222,-1.1035 -2.7668,-1.2082 -3.8621,-0.2856" /><path
       inkscape:connector-curvature="0"
       id="path66"
       style="fill:#fcd006;fill-opacity:1;fill-rule:evenodd;stroke:none;stroke-width:0.1"
       d="M 5.49688,19.482 5.99375,20.9266 7.43711,21.1074 8.67344,19.6473 8.23711,18.2637 6.73203,18.0191 C 5.63789,17.098 5.41094,15.2699 6.33359,14.1672 5.9668,14.1938 4.42773,14.6805 3.12188,16.2367 1.81719,17.7945 1.60195,19.3945 1.63555,19.7676 2.55781,18.6645 4.40234,18.5598 5.49688,19.482" /><path
       inkscape:connector-curvature="0"
       id="path68"
       style="fill:#fcd006;fill-opacity:1;fill-rule:evenodd;stroke:none;stroke-width:0.1"
       d="M 5.8168,21.1434 5.58398,20.502 5.14609,21.0254 6.00625,21.7465 6.44805,21.2242 5.8168,21.1434" /><path
       inkscape:connector-curvature="0"
       id="path70"
       style="fill:#fcd006;fill-opacity:1;fill-rule:evenodd;stroke:none;stroke-width:0.1"
       d="m 15.8102,20.5027 c 0,0.2907 -1.1762,0.7129 -3.0196,0.7129 -1.8468,0 -3.02537,-0.4222 -3.02537,-0.7129 0,-0.0039 0.00118,-0.007 0.00235,-0.0105 -0.00117,-0.0039 -0.00235,-0.0078 -0.00235,-0.0113 0,-0.2907 1.17857,-0.7129 3.02537,-0.7129 1.8434,0 3.0196,0.4222 3.0196,0.7129 0,0.0035 -0.002,0.0074 -0.0032,0.0113 0.0012,0.0035 0.0032,0.0066 0.0032,0.0105" /><path
       inkscape:connector-curvature="0"
       id="path72"
       style="fill:#fcd006;fill-opacity:1;fill-rule:evenodd;stroke:none;stroke-width:0.1"
       d="m 13.677,12.9785 4.1621,4.961 -0.6809,0.0781 -0.1977,0.6289 -4.0191,-4.7918 0.7356,-0.8762" /><path
       inkscape:connector-curvature="0"
       id="path74"
       style="fill:#fcd006;fill-opacity:1;fill-rule:evenodd;stroke:none;stroke-width:0.1"
       d="M 8.40195,18.0348 8.59961,18.6637 19.482,5.68867 18.6199,4.96484 7.7207,17.9566 8.40195,18.0348" /><path
       inkscape:connector-curvature="0"
       id="path76"
       style="fill:#fcd006;fill-opacity:1;fill-rule:evenodd;stroke:none;stroke-width:0.1"
       d="M 11.8988,12.6113 6.07813,5.67109 6.93984,4.94727 12.634,11.7352 11.8988,12.6113" /></g></svg>