<?xml version="1.0" encoding="UTF-8" standalone="no"?>
<svg
   xmlns:dc="http://purl.org/dc/elements/1.1/"
   xmlns:cc="http://creativecommons.org/ns#"
   xmlns:rdf="http://www.w3.org/1999/02/22-rdf-syntax-ns#"
   xmlns:svg="http://www.w3.org/2000/svg"
   xmlns="http://www.w3.org/2000/svg"
   xml:space="preserve"
   enable-background="new 30.5 31.5 412 533"
   viewBox="30.5 31.5 420 500"
   height="500"
   width="420"
   y="0"
   x="0"
   version="1.1"
   id="svg2"><metadata
     id="metadata4"><rdf:RDF><cc:Work
         rdf:about=""><dc:format>
          
          
          
          
          image/svg+xml
        
        
        
        
        </dc:format><dc:type
           rdf:resource="http://purl.org/dc/dcmitype/StillImage" /><dc:title></dc:title></cc:Work></rdf:RDF></metadata><defs
     id="defs6" /><path
     id="path4605"
     d="M 55.33399,33.113805 C 55.55112,134.98767 51.47857,244.18064 84.93,329.29 c 28.05,75.48 76.81953,143.03031 155.57,201.59 78.75047,-58.55969 127.52,-126.11 155.57,-201.59 33.45143,-85.10936 29.37888,-194.30233 29.59601,-296.176195 -128.80646,-0.75995 -253.96918,-0.0281 -370.33202,0 z"
     style="fill:#ffffff;fill-opacity:1;fill-rule:evenodd;stroke:none;stroke-width:1;stroke-miterlimit:4;stroke-dasharray:none;stroke-opacity:1" /><path
     style="fill:#ffe000;fill-opacity:1;fill-rule:evenodd;stroke:none;stroke-width:1px;stroke-linecap:butt;stroke-linejoin:miter;stroke-opacity:1"
     d="M 272.22367,505.31217 C 259.33029,484.95957 255.5,449.51164 255.5,431.05882 l 0,-184.55882 87.7731,0 c 32.51785,0 61.34254,11.23141 71.22929,17.12423 4.11473,-22.97719 6.47158,-45.95438 8.04202,-68.93157 C 404.41273,202.39013 375.98468,211.5 342.31572,211.5 l -86.81572,0 0,-80.56905 c 0,-36.462435 10.03502,-73.661425 19.22448,-97.930945 -22.81632,0 -45.63264,0 -68.44896,0 9.18946,24.26952 19.22448,61.46851 19.22448,97.930945 l 0,80.56905 -86.81572,0 c -33.66896,0 -62.09701,-9.10987 -80.2287,-16.80734 1.57044,22.97719 3.9273,45.95438 8.04202,68.93157 C 76.38436,257.73141 105.20905,246.5 137.7269,246.5 l 87.7731,0 0,184.55882 c 0,18.45282 -3.83029,53.90075 -16.72367,74.25335 10.50646,8.99926 21.03885,17.81706 31.72367,25.56783 10.68482,-7.75077 21.21721,-16.56857 31.72367,-25.56783 z"
     id="path4245" /><path
     style="fill:none;fill-opacity:1;fill-rule:evenodd;stroke:#000000;stroke-width:1;stroke-miterlimit:4;stroke-dasharray:none;stroke-opacity:1"
     d="M 55.33399,33.113805 C 55.55112,134.98767 51.47857,244.18064 84.93,329.29 c 28.05,75.48 76.81953,143.03031 155.57,201.59 78.75047,-58.55969 127.52,-126.11 155.57,-201.59 33.45143,-85.10936 29.37888,-194.30233 29.59601,-296.176195 -128.80646,-0.75995 -253.96918,-0.0281 -370.33202,0 z"
     id="path4247" /><path
     id="path4249"
     d="M 66.4976,263.62423 C 76.38436,257.73141 105.20905,246.5 137.7269,246.5 l 87.7731,0 0,184.55882 c 0,18.45282 -3.83029,53.90075 -16.72367,74.25335 m 63.44734,0 C 259.33029,484.95957 255.5,449.51164 255.5,431.05882 l 0,-184.55882 87.7731,0 c 32.51785,0 61.34254,11.23141 71.22929,17.12423 m 8.04202,-68.93157 C 404.41273,202.39013 375.98468,211.5 342.31572,211.5 l -86.81572,0 0,-80.56905 c 0,-36.462435 10.03502,-73.661425 19.22448,-97.930945 m -68.44896,0 C 215.46498,57.269525 225.5,94.468515 225.5,130.93095 l 0,80.56905 -86.81572,0 c -33.66896,0 -62.09701,-9.10987 -80.2287,-16.80734"
     style="fill:none;fill-opacity:1;fill-rule:evenodd;stroke:#000000;stroke-width:1px;stroke-linecap:butt;stroke-linejoin:miter;stroke-opacity:1" /></svg>