<?xml version="1.0" encoding="UTF-8"?>
<svg id="Layer_1" data-name="Layer 1" xmlns="http://www.w3.org/2000/svg" viewBox="0 0 239.14 272.97">
  <defs>
    <style>
      .cls-1 {
        fill: #ffcd00;
      }

      .cls-2 {
        fill: #e40017;
      }
    </style>
  </defs>
  <path class="cls-2" d="m0,0v151.55c0,4,.2,10.19.58,14.09,5.97,60.26,56.97,107.34,118.99,107.34s113.02-47.08,118.99-107.34c.39-3.9.59-10.09.59-14.09V0H0Z"/>
  <path class="cls-1" d="m177.01,213.13s2.93-86.6,38.71-152.81c-13.45,8.12-23.4,11.27-29.74,15.34-3.64,2.5-5.56,5.62-5.56,10.02,0,6.71,5.62,10.54,6.52,12.47.42.89-.32,3.58-1.78,7.75-1.1-9.39-10.54-13.61-17.41-10.89-1.77.7-8.42,3.46-9.35,3.84-.93.38-1.48.9-1.84,1.73-.33.85-.31,1.6.08,2.53.39.92,3.14,7.58,3.9,9.32,2.95,6.83,12.81,10.57,20.25,4.54-.96,2.54-1.96,5.21-3.07,8.65-5.04,15.68-7.77,27.35-10.24,31.93-2.47,4.58-7.8,5.92-11.66,5.92h-9.11c-5.11,0-12.36-3.32-14.3-18.55-1.68-13.2-4.8-38.64-5.6-45.19,7.38,7.49,17.26,5.49,22.99-.25,1.56-1.56,7.35-7.57,8.16-8.41.81-.83,1.16-1.64,1.16-2.7s-.35-1.86-1.16-2.7c-.81-.83-6.61-6.84-8.16-8.41-6.09-6.11-16.89-7.97-24.38,1.3-.29-5.35.84-6.66,4.98-8.99,4.23-2.38,11.2-9.16,7.33-19.88-3.47-9.61-9.74-12.31-18.08-33.95-8.34,21.63-14.61,24.34-18.08,33.95-3.88,10.72,3.09,17.49,7.33,19.88,4.14,2.33,5.28,3.65,4.98,8.99-7.49-9.27-18.29-7.41-24.38-1.3-1.56,1.56-7.35,7.57-8.16,8.41-.81.83-1.16,1.64-1.16,2.7s.35,1.86,1.16,2.7c.81.83,6.61,6.84,8.16,8.41,5.72,5.75,15.6,7.75,22.99.25-.8,6.55-3.92,31.99-5.6,45.19-1.94,15.23-9.19,18.55-14.3,18.55h-9.11c-3.86,0-9.19-1.34-11.66-5.92-2.47-4.58-5.2-16.25-10.24-31.93-1.1-3.44-2.11-6.11-3.07-8.65,7.44,6.03,17.3,2.29,20.25-4.54.76-1.75,3.51-8.4,3.9-9.32s.41-1.68.08-2.53c-.36-.84-.92-1.35-1.84-1.73-.93-.38-7.58-3.14-9.35-3.84-6.87-2.72-16.31,1.49-17.41,10.89-1.46-4.17-2.2-6.85-1.78-7.75.9-1.92,6.52-5.76,6.52-12.47,0-4.4-1.91-7.53-5.56-10.02-6.34-4.07-16.29-7.21-29.74-15.34,35.78,66.21,38.71,152.81,38.71,152.81h114.71Z"/>
</svg>