<?xml version="1.0" encoding="UTF-8"?>
<svg width="421.2" height="647.05" enable-background="new 30.5 31.5 412 533" version="1.1" viewBox="30.5 31.5 421.2 647.05" xml:space="preserve" xmlns="http://www.w3.org/2000/svg"><path d="m439.1 186.97c4.364 194.52-37.277 372.36-198 488.5-160.72-116.14-202.36-293.98-198-488.5h198z" fill="#0085ca" fill-rule="evenodd"/><path d="m212.73 294.76c0.28416-1.782 9.0672-3.1714 20.732-5.9921 14.493-3.5045 32.365-7.8264 44.904-10.709 4.502-1.0349 7.1922 3.478 10.776 5.242l21.044 10.358c0.55417 0.27277 1.5692 0.77048-1.8029 2.8846-1.3676 0.85745-0.64549 3.7517-1.1348 6.4328-0.31756 1.7398-3.7866 0.58152-3.6634 1.2326l3.7428 19.768 1.226 7.7164c3.7107-1.9562 7.0709-1.6337 10.529-1.9471 2.5048-0.22701 4.7948 2.0807 4.9038 3.5337 0.34246 4.5625 0.18388 7.5434-1.8329 8.5199-2.9646 1.4354-2.9057 2.8725-2.8335 6.5188 0 0-0.64645 18.9 0.64904 28.596 0.66064 4.9447 1.7762 10.446 0.84789 11.639l-0.99725 1.2821s0.46114 1.9214 0.7284 3.6239c0.29064 1.8514-0.20247 5.6214-0.20247 5.6214 1.3361 6.4355 5.2077 9.2216 9.3379 11.579 8.0577 4.5984 18.905 4.3108 25.703 13.489 5.5215 7.4555 4.2978 8.5489 8.5519 10.958 15.127 8.566 14.05 14.537 21.058 17.74 2.7376 1.2515 5.2403 3.6304 6.4904 3.8942 1.2505 0.26391 5.2218 3.1104 5.3827 4.4639l-52.041-5.1851-47.38 11.899-57.26-13.486-56.322 13.341-48.389-12.692-44.712 8.726-5.4838-3.0237c0.34292-3.2692 1.5332-7.7709 4.437-10.267 7.9253-6.8114 11.629-6.4258 15.758-9.7866 6.4073-5.2149 4.9372-10.8 7.2677-16.217 2.9264-6.8019 7.8144-7.0982 12.367-8.8017 9.1254-3.4149 11.74-6.8106 18.808-12.442 2.0616-1.6426 5.3698-3.3224 7.2203-4.3939 0 0-0.0905-5.467 0.71244-7.9378 1.3813-4.2509 4.1712-8.7681 5.4087-16.803l0.43269-12.981c0.15334-4.6001-0.17759-6.1825 1.4423-8.7981-1.993-2.0411-3.479-2.9856-3.4615-4.0137 0.0623-3.6689 0.71388-7.0629 3.2313-10.695 3.5831-5.1694 7.2415-3.4153 11.097-5.2922 0.72614-0.35349 1.2593 0.45569 2.2108 0.44507 1.5275-0.0171 1.6243-2.1326 5.2119-2.2341 2.5033-0.52097 6.001 0.33704 9.7582 0.90975 2.1285 0.32444 4.5629-3.4973 10.765-4.517 2.0193-0.33202 3.9041 0.34879 5.389 0.11798 2.5-0.38859 3.2246-1.857 6.2762-1.9245 1.2424-0.0275 3.1443 1.0285 3.4398-0.66291l2.8234-16.159c0.1642-0.93976-1.3851-1.3897-1.3738-1.9348l0.1566-7.5881c0.025-1.2124-2.2782-0.58863-2.2654-1.9435z" fill-rule="evenodd"/><g fill="#fff" fill-rule="evenodd"><g stroke="#000"><path d="m125.63 231.93h24.885l-19.173 16.522 9.2808 29.372-24.519-17.032-24.519 17.032 9.2808-29.372-19.173-16.522h24.885l9.5273-23.049z" stroke-width="2.5"/><path d="m375.63 231.93h24.885l-19.173 16.522 9.2808 29.372-24.519-17.032-24.519 17.032 9.2808-29.372-19.173-16.522h24.885l9.5273-23.049z" stroke-width="2.5"/><g stroke-width="1px"><path d="m186.1 601.67c-11.508 0-21.36-3.9727-31.461-7.3465l15.038 16.893c5.2156 1.439 10.608 2.4535 16.423 2.4535 20 0 35-12 55-12s35 12 55 12c5.8152 0 11.208-1.0145 16.423-2.4535l15.038-16.893c-10.102 3.3738-19.954 7.3465-31.461 7.3465-20 0-35-12-55-12s-35 12-55 12z"/><path d="m296.1 489.67c20 0 35-12 55-12 14.71 0 26.716 6.4918 39.995 9.9258l-4.3233 10.774c-11.619-3.5523-22.573-8.6997-35.672-8.6997-20 0-35 12-55 12s-35-12-55-12-35 12-55 12-35-12-55-12c-13.099 0-24.053 5.1474-35.672 8.6997l-4.3233-10.774c13.279-3.434 25.285-9.9258 39.995-9.9258 20 0 35 12 55 12s35-12 55-12 35 12 55 12z"/><path d="m296.1 518.17c20 0 35-12 55-12 10.529 0 19.672 3.3257 28.888 6.4755l-4.9718 10.305c-7.5766-2.5426-15.28-4.78-23.916-4.78-20 0-35 12-55 12s-35-12-55-12-35 12-55 12-35-12-55-12c-8.636 0-16.34 2.2374-23.916 4.78l-4.9718-10.305c9.2164-3.1498 18.359-6.4755 28.888-6.4755 20 0 35 12 55 12s35-12 55-12 35 12 55 12z"/><path d="m296.1 546.67c20 0 35-12 55-12 5.794 0 11.168 1.0071 16.366 2.4378l-7.0829 10.39c-2.9933-0.51886-6.074-0.82788-9.2834-0.82788-20 0-35 12-55 12s-35-12-55-12-35 12-55 12-35-12-55-12c-3.2095 0-6.2902 0.30902-9.2834 0.82788l-7.0829-10.39c5.1979-1.4307 10.572-2.4378 16.366-2.4378 20 0 35 12 55 12s35-12 55-12 35 12 55 12z"/><path d="m296.1 575.17c20 0 35-12 55-12l-8.6376 12.719c-15.942 2.5892-29.342 11.281-46.362 11.281-20 0-35-12-55-12s-35 12-55 12c-17.021 0-30.42-8.6913-46.362-11.281l-8.6376-12.719c20 0 35 12 55 12s35-12 55-12 35 12 55 12z"/><path d="m296.1 630.17-12.407 10.552c-14.333-3.1919-26.93-10.552-42.593-10.552s-28.26 7.3601-42.593 10.552l-12.407-10.552c20 0 35-12 55-12s35 12 55 12z"/><path d="m259.53 661.7 10.19-8.6455c-9.1274-3.1228-18.197-6.3855-28.625-6.3855s-19.498 3.2627-28.625 6.3855l10.19 8.6455c5.8421-1.7376 11.869-3.031 18.435-3.031s12.593 1.2934 18.435 3.031z"/></g></g><g><path d="m264.22 399.22c-3.3998 1.3907-8.9616-0.82707-13.486 0.50225-4.9678 1.4596-9.5523 1.4472-14.3 2.0958-3.3103 0.45221-2.0442-1.598-2.9354-1.4329-2.0942 0.38786-4.6551 1.3807-5.9626 0.80971l-1.7374-0.75872c-1.2096-0.52821-4.0477 2.4716-3.7225 1.0709 0.40025-1.724 11.6-3.3989 17.644-5.2523 3.3583-1.0299 4.3174-2.8896 6.4762-4.3344 3.1572-2.1131 16.224-1.6824 16.828-2.6006 0.35897-0.54615-2.8018-0.86442-6.8244-0.62063-3.1954 0.19366-7.2274 0.78342-9.6975 1.6915-5.7765 2.1236-9.7918 4.7868-16.93 5.7622-10.132 1.3846-14.431 1.3938-20.499 3.6205-3.6772 1.3494-4.7656 0.50234-5.0483-0.50993-0.13817-0.49468 1.9391-0.62047 3.794-1.2103 2.2022-0.70029 4.4789-1.4544 5.9457-2.1042 3.5605-1.5774 5.8176-3.4765 7.649-5.6603-1.6079 0.43276-4.0024 1.2859-3.6205-0.30596 0.22851-0.95246 2.5616-0.6509 4.6409-1.7371 2.2509-1.1758 5.2476-4.2831 7.2915-3.6172 4.4327 1.4442 3.9519-1.7871 7.7-0.61193 2.9321 0.9193 3.4664-0.67654 10.658-6.6291 2.8419-2.3524 11.853-5.3204 21.723-5.0483 4.1805 0.11523 5.7746 0.96712 9.3318 3.0596 0.86803 0.51061 0.88941 2.916-1.7338 1.6828-2.8713-1.3498-5.6651-2.7699-5.3033-1.7848 0.76894 2.0936 12.027 5.5952 18.358 7.496 1.4393 0.43217 3.0788 1.642 2.7536 2.7536-0.23971 0.81948-5.6865-0.95037-4.7934-0.20398 4.8875 4.0843 12.995 1.8103 17.236 3.3656-2.5619-2.6227-7.0915-2.3983-10.199-5.0993-1.3463-1.6622-1.984-4.327-4.2834-4.5894-1.9475-0.22222-3.8292 0.15997-5.6093-1.7848-2.6305-2.8739-5.1816-6.7224-7.547-7.496-2.314-0.75674-4.8504-8e-3 -7.292 0.10198-1.6112 0.0728-2.629-2.156-5.4053-1.8358-0.52044 0.06-1.5787 0.25454-3.2126 0.96887-1.3737 0.60059-2.8502-1.6847-4.1814-1.0709-9.7277 4.4856-16.862 11.376-25.293 14.074 0 0-4.4379 1.8929-6.8841 1.8358-0.89436-0.0209-2.6516-1.0199-2.6516-1.0199-3.4076-0.8686-6.4092 5.8475-9.4848 8.2609-3.6588 2.8712-4.8182 2.9326-6.5271 4.1304-1.3467 0.94396-3.9418 2.3162-5.7641 1.8408-9.6205-2.5096-9.7589 0.95447-13.939 0.68402-3.8755-0.25072-7.283 1.4487-10.53 1.207l-5.909-0.43994c-2.8147-0.20957-8.3225 4.1665-13.756 2.5874l-4.6736-1.3264c-4.4137-1.2527-11.478 5.9557-15.927 10.056-5.8376 3.0307-11.377 6.1251-17.621 8.0733-3.8738 2.178-7.08 5.2063-7.3012 10.766-0.72818 3.1291-1.4842 6.2304-3.0113 8.5606-2.1825 3.4591-6.0566 5.0387-9.3554 7.2574l-7.1889 3.9241c-3.4158 2.2141-5.8091 5.2116-5.931 8.4339 1.2503 2.5825 2.243-0.23351 3.3647-0.36058 1.1803-0.13371 0.53029-1.5844 1.2981-1.8029 2.1284-0.60568 3.3786-1.5427 3.8942-2.8846 0.19975-0.51979-1.7869-0.21669-1.5304-1.0096 0.69774-2.1575 1.1623-1.5785 2.3958-2.3798 2.1394-1.3897 5.1074-0.13215 6.7752-1.518 2.4846-2.0646 3.3611-1.7872 6.0897-3.1133 1.7158-0.83386-0.51271-1.172-0.69853-1.6973-0.29633-0.83766 1.8085-1.087 2.6894-1.5319 1.2756-0.64431 1.7222-1.8218 2.0841-2.9181 0.55847-1.6916 3.1137-3.5519 5.6869-3.5672 4.333-0.0257 5.8952-5.0834 9.6088-4.6926 1.9275 0.20281 1.7033-1.6012 1.0096-1.8029-2.3033-0.66975-5.186 0.19198-6.2704 1.5865-2.4427 3.1412-6.8994 4.2118-7.143 3.066-0.65421-3.0768 0.26074-6.135 0.72116-6.7438 0.48166-0.63696 0.74301-0.35006 1.1218-0.3817 0.24108-0.0201 3.4264-3.7852 1.907-3.801-0.71118-7e-3 -2.3816 0.8521-1.9471-0.28847 0.78642-2.0646 7.7009-3.1497 11.565-3.9576 3.3618-0.70295 0.80936-0.50012 3.5074-1.9559 2.383-1.2858 4.0212-3.2646 7.0302-4.3918 5.7018-2.136 2.4898-4.1697 4.3692-4.7297l2.3026-0.68616c1.0451-0.31143 0.96729-2.3967 3.4368-2.4504 4.6798-0.10178 8.2839 2.6458 12.356 1.2245 4.7774-1.6674 8.7862-2.4381 12.764-3.1731 1.3927 0.78214 2.4395 1.5523 4.8317 1.226 3.5891-0.48956 6.4262-1.9191 9.5192-3.0288-0.23882 0.83229-0.87835 2.2332 0 2.0192 1.875-0.45673 4.4661-1.3343 6.4919-1.5742 2.2983-0.2721 4.0347-0.59159 5.1187 0.49243 0.45563 0.45563-1.1865 2.6991-2.6245 1.7169-0.84644-0.57814-3.5341 4.5574-5.6132 6.3184-3.6024 3.0512-7.2629 4.8519-8.1325 4.8013-0.8072-0.047-1.9468-0.40127-2.3077 1.226-1.1085 4.9982-4.5754 10.014-8.3989 14.231-4.0559 4.4742-18.677 6.6944-27.888 9.8376-0.42035 0.14344 0.67741 1.2646 0.67741 1.2646l-9.2591 2.3922c-1.8558 3.193-5.1209 6.1687-8.847 7.7586l4.5324 1.5829c4.1839-1.6585 11.405-2.9028 12.548-4.976-2.8618-0.18042-2.8183-0.73541-2.3306-1.131 1.5011-1.2176 3.4436-0.70746 5.6391-1.7098 3.0906-1.4109 6.1176-4.1658 8.4351-4.8174 3.0301-0.85197 4.3519-0.10191 6.2722-0.051 3.6493 0.0967 10.154-6.0319 12.901-9.4338l5.3543-6.6291c2.7116-3.3572 4.6362-2.0066 9.6887-9.0768 3.1106-4.2923 6.8905-6.2325 10.556-6.6291 0 0 6.461-1.0979 10.709-2.1927 4.3134-1.1118 5.5294 2.1439 10.25 0.96888 0 0 1.0282-0.50708 1.5298-0.35696 3.424 1.0247 9.1826-0.13856 10.685-0.22253 2.716-0.1518 3.199 1.4042 4.4522 0.64171 3.0134-1.8336 8.6957-0.44858 14.25-2.3667 2.2346-0.77174 4.0687-1.3076 7.0221-0.75509 0.30802 0.0576 0.10618 0.67765-0.73881 0.95534-1.5554 0.51114-2.9596 0.40305-3.6507 1.8307-0.52099 1.0764 2.6511-0.9263 8.01-1.4602 0.94043-0.0937 2.7293 1.2684 3.5309 0.24516 0.81346-1.0384 1.4811-1.1989 2.9452-1.367 3.9152-0.44944 9.0415-2.4003 14.487-4.8145 1.2526-0.5553 1.4203 1.6012 0.58824 1.9079-3.0314 1.1171-5.6755 3.0386-8.7523 5.3543-2.1856 1.645-5.4238 1.4594-6.2722 2.2437-3.2781 3.0308-10.726 3.9129-8.9748 4.2834 1.8009 0.38117 3.6545-1.3554 4.3344-0.23129 1.0667 1.7635-7.8193 3.3118-12.618 4.9999-1.3126 0.46175-4.5668 2.2175-4.5668 2.2175-1.6462 0.77862-2.9142-0.6743-3.3656 0-2.7624 4.1266-7.5617 5.2692-7.7211 6.1079-0.31645 1.6649-2.0055 0.86203-2.4266 2.051l-1.0884 3.0735c-0.46253 1.3062-3.1951 1.0891-3.7756 1.6725-3.3302 3.3465-4.8994 4.2425-8.009 9.4651-2.263 3.8008-5.8256 6.1843-9.8191 9.3478-0.98169 0.77763 2.0737 0.62618 1.1219 1.2748-2.0673 1.4088-3.9214 2.3869-3.8755 2.6516 0.27694 1.5954 5.4869-1.0282 8.8692-2.1978 2.7769-0.96034 6.1491-2.0348 7.2957-6.0121 0.69487-2.4103 1.1066-5.9277 2.9066-6.8331 4.7891-2.409 6.1045-6.9935 9.2298-9.4338 9.3143-7.2728 26.747-9.5467 35.103-6.7486 3.4673 1.161 7.7398 3.1478 10.714 2.254 2.3551-0.70785 3.7133-1.2998 5.4247-2.4095 1.898-1.2307 8.6007 0.80001 7.5888-0.40792-0.70713-0.84414-3.2208-1.8981-4.7898-1.418-2.0604 0.63044-3.0996 1.1191-6.3618 0.57117-3.6271-0.60917-4.8675 0.2781-6.9824-0.13805-4.5077-0.88697-13.24-4.8717-13.24-4.8717-0.88394-0.33683-1.0236-2.0934 1.6606-2.2823 5.7185-0.40258 4.3596-2.0971 6.5781-3.0596 5.6135-2.4355 8.824-2.2823 10.965-3.996l7.5455-6.0398c1.2558-1.0052 2.5133-0.12619 4.5384-2.9674 0.5013-0.70333 0.0486-1.0763 3.0193-1.5313 3.675-0.56286 4.6074 0.29159 5.2864-0.40132 0.66327-0.67686 2.9588-1.3953 4.986-0.91063 3.5827 0.85647 6.2098 3.3079 10.299 3.0297 0.16456-1.0896 0.42841-3.3977 0.031-5.6095-0.20781-1.1566-5.7398-3.105-7.0192-2.7472-2.7199 0.76072 2.6661 0.9041 5.2734 3.8358 0.4428 0.49789 0.44174 1.0503-0.32157 0.9522-0.86526-0.11119-2.3357-1.0546-3.9655-1.5399-2.4282-0.72292-5.1661-1.0444-6.4287-1.0452-7.5151-5e-3 -6.9784 1.3794-9.0211 0.97505-1.0212-0.20214-1.5881-1.0543-3.2796-0.62685-1.7114 0.43249-3.2972 1.1479-5.1318 1.6416-2.6731 0.41148-6.5989-1.7718-8.0193-0.78583-3.8841 2.6962-5.2084 2.9515-8.7003 3.5608"/><path d="m220.24 300.53c1.8485 0.85743 1.9665 0.69972 2.3525-1.4168 0.31597-1.7325 0.57628-3.5288 0.36057-5.1738-0.14903-1.1365-3.1561-0.15469-3.0368 0.51099 0.64335 3.5903-1.5749 5.1988 0.32378 6.0796z"/><path d="m226.02 293.08c-1.4707 0.83842-0.97885 4.4492-1.4624 6.6769-0.15482 0.71325 2.1914-0.30471 3.29-0.40826 2.8922-0.2726 2.7844-0.49542 3.1028-1.6424 0.66688-2.4027 0.70729-3.6849 0.90581-6.1108 0.0838-1.0237-3.7765 0.31029-5.8362 1.4846z"/><path d="m238.12 290.53c-0.16475 1.8276-0.33638 3.5856-0.49425 5.2779-0.0696 0.74623 2.4325 0.76595 3.0008-0.87128 0.63163-1.8197 0.50427-3.6394 0.64104-5.4592 0.0474-0.63118-3.0422-0.11631-3.1476 1.0526z"/><path d="m243.83 289.07c-1.0963 2.2259-0.5173 3.5956-0.86176 5.7721-0.24363 1.5394 4.7396-0.70932 6.5859-1.5013 1.7472-0.74949 1.9516-3.7082 1.9176-5.7455-0.0216-1.2905-3.0569-0.0959-4.757 0.39305-0.98567 0.28346-2.2206-0.2666-2.8846 1.0817z"/><path d="m257.75 285.46c0.0392 2.693-1.3936 4.4726-0.4345 5.5889 0.83845 0.97594 2.3451 0.99675 2.7404-0.50481 0.48575-1.8451 0.3577-3.5626 0.38788-5.4079 0.01-0.61135-2.7147-1.1123-2.6938 0.32378z"/><path d="m262.64 284.9c0.13445 2.0236-0.74924 4.3229-0.18029 5.4968 0.41556 0.85739 4.9111-0.98957 6.6794-2.3059 1.5714-1.1697 0.0165-3.4658 0.5303-5.3886 0.18144-0.67899-1.723-0.2346-3.5801 0.30637-1.6391 0.47748-3.553 0.33082-3.4493 1.8913z"/><path d="m282.91 287.81c1.8779 0.19174 1.4148-2.6444 2.0054-4.8467 0.2469-0.92075-2.5377-2.3999-2.6544-0.81439-0.17095 2.3348-0.5983 5.5337 0.64903 5.6611z"/><path d="m290.65 286.65c-0.75189 1.6766-0.19478 5.0263 0.61479 5.1351 1.3913 0.18695 1.113-2.6824 1.4117-3.8548 0.39781-1.5614-1.5167-2.417-2.0265-1.2803z"/><path d="m295.07 288.06c-0.81468 0.29319-0.8767 1.677-0.82779 2.8482 0.0255 0.60958-1.0338 0.95495-1.1183 0.32848-0.13464-0.99877-0.37309-1.6758 0.10455-3.3789 0.37712-1.3447 2.27 0.048 1.8415 0.20216z"/><path d="m285.56 283.9c-0.25418 1.7361-0.82056 3.8505-0.2076 4.3338 0.51314 0.40466 1.3586-2.2534 1.9052-3.6524 0.23744-0.60777-1.6009-1.3419-1.6976-0.68147z"/><path d="m166.03 345.31c1.4222-0.0941 4.0573-0.039 4.1881-0.59436 0.41234-1.7513 2.5123-8.0149 1.9927-11.922l-2.2108-0.44507c-2.5688 0.80147-5.9407 1.2348-7.689 2.4124-4.5397 4.1916-2.5912 8.699-2.811 11.571-0.14849 1.9406 2.734-0.771 6.53-1.0222z"/><path d="m191.2 330.09c-1.6039 1.1443-0.41082 0.74272-0.94986 9.1606-0.0151 0.2357 0.32817 0.31832 0.62332 0.79084 0.16643 0.26645-0.26141 1.234 0.15373 1.0635 3.0457-1.2508 9.4205-2.2587 9.525-3.2888l0.87495-8.6216c0.14386-1.4176-1.5464-2.137-3.1357-2.0442-2.6979 0.15761-4.8416 1.3343-7.0915 2.9395z"/><path d="m221.82 324.39c-2.0982 3.44-1.4241 6.7779-1.0199 9.908 0.29532 2.2866 3.0284 2.1001 3.8245 0.86689 1.1051-1.712 6.4283-1.8815 6.5562-3.407 0.23934-2.8542 0.34245-3.8588 1.2829-6.1448 0.46954-1.1414-1.8942-3.2311-3.4108-3.0734-2.3327 0.24249-6.6061 0.8227-7.233 1.8504z"/><path d="m217.43 314.87c-0.84204 0.22606-0.24015 2.3049-1.2843 4.0717-0.47116 0.79717-0.0726 3.9858 0.41625 4.1595 0.60103 0.21363 1.6914 0.64214 2.4708 0.25563 2.7441-1.3611 4.8072-3.5767 7.8763-2.7369 1.3823 0.37825 1.2782-5.1185 1.6084-7.6585 0.30326-2.3324-7.4762 0.93911-11.087 1.9086z"/><path d="m218.15 312.42c0.0972 1.1251 0.99281 0.1953 2.954-0.46658 1.6528-0.55778 3.9819-0.85305 4.338-2.44 0.31542-1.4057 0.96383-3.7024 0.0853-3.7706-3.4676-0.26938-4.2349 2.1348-6.5724 3.265-1.1737 0.56749-0.90657 2.2358-0.80495 3.4122z"/><path d="m229.02 305.06c0.50258-0.89971 4.5083-1.2089 7.0532-2.2728 0.90054-0.37647 0.92574 2.2927 0.94987 4.282 0.0127 1.0456-4.5118 2.4003-8.0817 3.2745-1.1094 0.27167-1.2533-2.8992 0.0787-5.2837z"/><path d="m233.56 310.79c-2.6844 0.12056-3.11 3.6186-3.0982 5.4854 6e-3 0.98516-0.38894 1.8313-0.95792 3.0619-0.61828 1.3372 3.6454 1.86 5.7746 2.6727 1.9389 0.74006 3.403-4.1728 5.9152-4.2324 1.0703-0.0254 1.4925-2.4256 1.6894-4.148 0.20391-1.7837 0.47158-5.2527-0.77151-5.1838-3.1057 0.17237-5.5663 2.2102-8.5516 2.3442z"/><path d="m242.61 306.4c-0.87651 0.0818-0.54378 0.58659-2.3857 1.1809-1.442 0.46527-0.68097-2.5462-0.66291-4.0285 0.0139-1.1406 3.2732-2.5587 5.0469-2.9023 2.2959-0.44472 7.2277-1.8361 7.3212-1.4002 0.24718 1.1534 0.35068 3.7597-0.18498 4.0394l-5.7484 3.0014c-2.669 1.3935-2.9383 0.0674-3.386 0.1092z"/><path d="m180.11 340.46c1.17-0.28265 3.6828-0.22086 6.6787 0.16392 0.44524 0.0572 0.0298 1.1522-0.68514 1.1822-1.5387 0.0646-3.7219 0.82074-5.8362 0.76798-0.74422-0.0186-0.88761-1.9376-0.15732-2.114z"/><path d="m209.47 334.83c2.7643-0.53752 3.0114-0.0222 4.6747-0.0176 0.9876 3e-3 1.3327 1.6784 0.50993 1.7637-1.963 0.20361-5.8832 1.1808-6.031 0.0233-0.0863-0.67536 0.0172-1.6082 0.84644-1.7695z"/><path d="m242.41 328.71c-1.1233 7e-3 -1.9364 3.2619-1e-5 2.1789 2.5625-1.4332 8.5054-1.2842 7.1996-2.1432-2.3692-0.91354-4.6954-0.0514-7.1995-0.0357z"/><path d="m256.26 318.63c-0.5368 2.7494 0.84282 5.3708-1.068 6.7487-1.6842 1.2145 2.4486 2.613 4.354 2.4491 2.8245-0.24286 5.0571-1.706 7.5856-1.9254 2.3816-0.20658 4.4414 0.34406 5.1183-0.6177 1.4332-2.0361 1.1756-4.5986 1.0418-8.838-0.0253-0.80172-0.54595-2.3678-3.08-1.7257-1.2078 0.306-4.2566 1.0413-7.5828 1.929-2.8927 0.77199-6.1986 1.1078-6.3689 1.9799z"/><path d="m277.08 313.98c-0.12036-1.6627 6.2662 1.4272 9.4214 2.3166 0.75093 0.21167 0.93468 5.9459 0.0925 10.426-0.16057 0.85414-5.8795 0.29671-8.6841-1.7047-2.0363-1.4531-0.54904-7.1607-0.82972-11.038z"/><path d="m289.62 319.25c0.0369-1.0792 4.2585-0.64674 6.753 0.31403 1.2436 0.479-1.3588 1.4987-2.6007 2.3457-0.4543 0.30985-0.0768 6.6951-1.1218 6.8331-0.92177 0.12169-1.8139 1.0775-2.6855 0.75387-0.46281-0.17184-0.53895-0.43647-0.70339-1.0022-0.12626-0.43443-0.88925 0.13586-1.2786 0.0686-0.33068-0.0571-0.39192-0.64932 0.43508-1.911 1.2146-1.853 1.1096-4.7035 1.202-7.4021z"/><path d="m245.32 309.47c-0.49509 2.7517-0.92508 5.5034-0.50993 8.2551 0.27916 1.8504 4.0309 1.7329 7.4064 0.16969 1.5502-0.71791 3.983-2.1324 5.995-2.7111 2.406-0.692 4.6554-0.63569 6.327-1.0682 1.9532-0.5053 3.0894-1.4664 2.3364-1.851-2.1268-1.0862-0.44751-4.4991-0.80639-6.9803-0.32404-2.2403-0.98601-1.887-2.1869-1.8882-3.7489-4e-3 -3.4655 1.546-4.6914 2.6006-0.57388 0.49368-1.4678 0.44301-1.0673 2.9335l0.50923 3.6155c0.3047 2.1634-2.3796 1.8556-2.4506 0.845-0.20397-2.9066 0.9052-8.8597-0.61192-8.7198-2.4767 0.22834-1.9692 1.9751-3.5877 1.4512-1.4003-0.45334-6.3725 1.7392-6.662 3.348z"/><path d="m253.57 303.33c-0.3694 1.8821 6.1545-0.65407 8.4917-0.61192 0.95754 0.0173 0.89597-1.465 1.0498-2.6531 0.12156-0.93875-1.2499-3.4565-1.7877-3.3408l-6.9999 1.5065c-1.899 0.40868-0.42423 3.4194-0.75395 5.0993z"/><path d="m263.65 296.75c2.5981-2.093 6.2589-2.4083 9.6413-2.9183 1.4319-0.21589 2.622 1.4864 2.2182 3.646-0.19278 1.0312 0.19812 2.4224-3.0632 2.9984l-6.0427 1.0672c-1.3726 0.46746-1.1471-0.97021-1.7345-1.9955-0.71486-1.2477-1.5188-2.3953-1.0191-2.7979z"/><path d="m276.33 293.35c-0.22529 1.7107 1.1742 0.73672 1.2748 1.3258l-0.0765 3.6715c-0.0378 1.8164 5.3456 2.0567 5.3798 1.4788 0.13554-2.2947 0.0182-3.6907-0.15299-6.0427-0.0538-0.73886-1.6294-1.0488-3.3137-1.1608-1.4277-0.095-2.9981-0.13382-3.1115 0.72735z"/><path d="m285.97 295.24c2.5497 0.57112 6.1775 2.1406 5.8533 3.2271-0.21757 0.72921-0.53683 0.84634-0.50993 1.4533 0.0261 0.58966 1.1294 2.7717 0.33144 2.7026-2.2074-0.19107-3.9773 0.24112-6.6437-1.9268-0.70372-0.57217-0.34994-5.7517 0.96887-5.4563z"/><path d="m293.87 298.55c1.9953 0.55091 5.5897 1.1615 4.6659 3.1361-0.55244 1.1808-1.2152 1.0938-0.94337 2.1672 0.22117 0.87351 0.7959 2.4381 0 2.3712-1.4368-0.12075-2.4375-1.1341-4.1305-1.9632-0.69416-0.33996-0.30421-5.9079 0.40795-5.7112z"/><path d="m268.93 312.82c-1.0936 0.14044-0.39315-0.92801-0.0968-2.0141 0.15276-0.55992-0.85888-1.4303-0.73722-2.194 0.29377-1.844-0.0354-3.883 1.0096-5.4808 0.81225-1.2418 4.2135-2.3363 5.625-2.1635 0.63492 0.0777 1.0674 1.3527 1.6586 1.3702 0.59207 0.0175 0.21593-2.3512 1.875-1.6587 1.361 0.56812 2.5253 1.5032 3.6889 1.7118 0.73543 0.13186 2.9166-0.74515 3.162 0.54925 0.68838 3.6302 0.4363 6.0059-0.36057 9.7101-0.18597 0.86447-1.7193 0.39466-2.7972-0.79327-0.46876-0.51659-2.5233 0.68948-3.6932 0.36057-1.207-0.33934-0.43874-3.0098-0.41447-4.3808 0.0105-0.5916-1.2809-1.3392-1.4037-0.15442-0.20372 1.9652-0.94408 3.4556-1.9471 4.2985-1.3253 1.1137-3.5759 0.58319-5.569 0.83914z"/><path d="m289.39 304.23c-0.47187-0.56404-2.0431-0.41805-1.8809 0.9761 0.37417 3.2155-2.0384 7.5522-0.43269 9.3568l2.7229 3.0602c0.42586 0.47861 2.0351 0.56536 2.6042-0.93967 0.89418-2.3649 1.8782-4.0636 1.9012-6.7097 0.0195-2.2352-3.2663-3.7733-4.9148-5.7438z"/><path d="m296.34 307.35c-0.0359-0.41774 2.261-0.0266 2.4053 1.1874l1.226 10.312c0.2206 1.8557-3.146-0.57886-4.9607-1.1-1.6988-0.4878 1.6841-6.277 1.3294-10.4z"/><path d="m303.67 309.44c1.2965 3.75 2.3755 7.5386 2.787 11.289 0.2623 2.39-5.2057 0.48777-5.1202-0.9375l0.21634-3.6058-0.9375-6.0577c-0.0487-0.31489 2.3935-2.5989 3.0543-0.68765z"/><path d="m302.21 321.81c0.97285 0.37087 2.2732 0.97563 3.1731 1.7308 0.33966 0.28504 1.3294 0.0466 1.3294 0.0466 1.0096 3.9357 0.43192 9.7917-0.25279 9.7224-1.9942-0.20162-7.7426-3e-3 -6.2595-2.9924l0.88437-1.7825c1.0471-2.1104-0.26063-7.2534 1.1254-6.725z"/><path d="m242.67 320.68c-0.93628 0.20752-1.6096-0.0386-2.3617 0.90549-0.84645 1.0625-1.3366 3.0656 0.21203 3.6606 0.78752 0.30257 1.5794 0.4847 2.3365-0.74974 1.2591-2.053-0.30199-2.1354 0.14688-2.9276 0.51612-0.91079 2.1797 0.89984 1.3623 3.0756-0.61829 1.6457-1.0802 2.6439-3.2639 2.5227-2.0311-0.11271-3.4974-1.8223-3.2277-3.4318 0.45572-2.7197 2.0424-3.811 3.6909-3.9965 1.8556-0.2088 1.5657 0.83903 1.1046 0.94122z"/><path d="m206.1 332.4c1.7532 1.462 4.6109 1.5992 5.5524-0.2932 0.5479-1.1012 1.6348-2.4488 1.1249-4.6955-0.30955-1.3638-2.0544-2.1725-3.7088-2.0433-2.641 0.20615-4.1539 2.1144-4.2055 3.8807-0.0366 1.254 0.50791 2.5433 1.237 3.1513z"/></g></g><g fill-rule="evenodd"><path d="m208.96 327.26c-1.4206 0.0587-2.0679 2.0963-1.8911 2.9765 0.37505 1.8672 2.1106 1.735 2.7587 1.2169 1.1176-0.8935 1.1784-4.2779-0.8676-4.1934z"/><path d="m177.25 330.91c-2.6739 0.4344-2.6862 2.0809-2.7034 3.8238-0.011 1.1151 0.44023 2.7385 1.4241 3.5535 2.3259 1.9267 4.8584 0.84078 6.3659-0.34496 1.1382-0.89524 1.0759-3.5958 0.54274-5.0006-0.52537-1.3843-2.4146-2.6777-5.6294-2.0317z" fill="#fff"/><path d="m179.06 332.22c-1.6259-0.0713-2.5732 2.4449-2.2764 3.504 0.6354 2.2674 2.3914 1.9674 3.1666 1.4293 1.793-1.2447 0.38847-4.8772-0.89022-4.9332z"/></g><g fill="#fff" fill-rule="evenodd"><path d="m308.91 332.39c0.12393 1.5438 0.69716 2.2769 1.8491 3.3541 0.98563 0.92173 0.43372-1.7253 0.49972-3.7435 0.037-1.1315-2.4525-0.90158-2.3488 0.38937z"/><path d="m319.51 330.25-0.28846 7.909c-0.0706 1.9345 2.9542 0.47971 2.9542 0.47971l1.3877-5.7444c-0.011-1.3994-2.9747-3.1294-4.0534-2.6443z"/><path d="m156.03 389.81c-2.7603-0.0609-2.0744 2.2805-2.0192 3.4615 0.0839 1.7969 0.46763 3.5225 1.0096 5.2644 0.4572 1.4694 5.1743 1.0968 5.3726-0.54087l0.97355-8.0409c0.0574-0.47408-3.5237-0.10424-5.3365-0.14423z"/><path d="m166.56 388.73c-1.3711 0.94205-2.4773 0.60035-3.3534 4.6154-0.47029 2.1554-0.8701 3.8182-0.25241 4.6875 1.421 1.9999 4.557-1.3792 7.9327-1.5505 1.3727-0.0696 2.6804-0.20419 4.3269 0 1.1756 0.14579 1.6464-5.1866 1.6947-6.9952 0.028-1.0476-3.284-0.31657-3.4255-1.1178-0.2031-1.1499 0.75803-2.3401 2.7404-1.9471 2.9011 0.57513 5.0657 0.30863 7.3197 0.14423 2.1161-0.15434 2.8815-5.9026 3.2091-9.1226 0.075-0.73677-3.5592-0.40726-3.8221-0.0361-0.3287 0.46404-0.72596 0.73525-1.1538 0.79327-0.46875 0.0636-0.40432-0.59035-1.0096-0.9375-0.52035-0.29843-3.3777 0.84815-6.4183 1.8029-1.5783 0.49558-0.40292 3.163-0.93749 5.4086-0.1303 0.54734 0.67546 2.5694-2.9207 3.1882-2.7355 0.47066-0.82903-1.7313 0.46873-2.8276 0.38477-0.32505 0.28579-4.5661 0.36058-5.0481 0.29678-1.9127-9.2531 0.54989-14.639 1.5144-1.3936 0.24956-0.67583 3.2435-1.2981 6.0216-0.28272 1.2623 13.505-0.19253 11.178 1.4063z"/><path d="m185.96 386.82c-1.8848 2.4703-6.8827 0.91127-6.9591 2.5962-0.19946 4.3966-2.0312 7.41-0.82932 7.3197 4.0612-0.3052 5.6362-1.3846 8.4375-2.0913 2.1661-0.54644 6.6457-0.0331 6.4904-1.6587-0.20906-2.1884 0.77186-5.9457-0.57692-5.7692-4.4521 0.58264-6.0308-1.0935-6.5625-0.39663z"/><path d="m194.75 393.28c-0.48985 1.3195 1.0716 0.79995 3.2451 0.68272 1.6101-0.0868 3.7264 0.1285 4.8319 0.47112 1.1966 0.37086 0.7944-0.58959 3.0558-2.483 0.98474-0.82452 0.18449-3.9541 0.87453-5.3415 0.59823-1.2028-6.4784-0.58894-9.6995-0.75721-1.9098-0.0998-1.394 4.9668-2.3077 7.4279z"/><path d="m204.06 375.61c-0.0862 3.9022-2.2738 8.6904-4.399 8.8702-3.4131 0.28865-5.7026 0.39516-10.673 0.64904-1.9236 0.0982-1.0238-4.1316-0.32453-6.4543 0.33476-1.1119 3.9518-2.3335 3.75-3.7861-0.0626-0.45108-6.7422 0.59434-10.24 0.97356-0.88805 0.0963-0.58206-6.0268 1.4062-8.6899 0.64019-0.85745 5.8077-0.88573 8.3654-2.6683 0.8861-0.61755 4.0401 0.90782 6.5625 0.72115 0.95838-0.0709 0.25603 2.0637-0.33023 4.0937-0.48424 1.6768-0.76324 3.2822-1.076 3.5145-4.2514 3.1572-2.1951 3.5743-1.5505 3.4976 2.5562-0.304 8.5368-1.9527 8.5096-0.72115z"/><path d="m210.98 373.3c-0.0519 2.3396-3.724 0.55962-5.0521 5.4422-0.45454 1.671-2.0226 4.6413-1.3301 5.1227 2.0872 1.4508 11.019-2.3168 11.034-0.0721 0.0142 2.1869-6.2825 0.42549-6.6707 1.7668-0.98565 3.4061-0.80885 6.2668-0.0721 6.2019 4.2249-0.3721 7.5422-5.9636 11.971-10.349 1.0906-1.0797 1.767-6.9439 1.4423-8.113-0.432-1.5552-4.0625 0.43269-6.0938 0.64904-0.80849 0.0861-2.861 1.028-3.8582-1.1538 0.97541-0.45971 2.7554-0.53372 2.8125-1.4423 0.20207-3.2171-0.47043-6.7708 0.64904-8.8341 0.97368-1.7946-3.9964 1.0912-4.9399 0.36058-0.69733-0.54002-1.1859-1.1372-2.0553-0.97356-1.0776 0.20278-1.1304 1.0918-3.2091 1.7668-0.99759-0.33447-1.6481-0.0865-2.6322 0.93752-1.6227 1.6884-2.5446 4.9895-3.8221 8.5817-0.90483 2.5442 11.851-0.97389 11.827 0.10814z"/><path d="m179.07 376.22c-3.2726 0.63624-11.429 3.0417-11.575 0.79327-0.19114-2.9593 0.0257-5.9032 2.1635-8.6178 0.78376-0.99525 2.0914-0.41986 3.137-0.61298l4.064-0.24084c0.7873-0.0467 2.4533-0.76547 2.3182-1.562-0.73395-4.3282 0.6123-8.451 1.6226-8.6899 1.3242-0.31313 3.759 0.56531 2.7043-1.1538l-7.9327 1.1538c-1.3096 0.19048-3.2652 0.4861-3.1731-2.4519 0.07-2.2318 0.41271-5.4971 1.6586-5.8774 3.564-1.088 6.7537-1.7253 10.24-2.488 2.0738-0.45363 2.4986 1.4004 2.2716 2.1995-0.6309 2.2211-0.43652 4.9668-2.1995 6.0216-0.70667 0.42283 0.40626 2.0545 1.1538 2.0192 2.9322-0.13835 1.9357-1.4695 1.8389-2.3798-0.2592-2.4378-0.52388-4.1953 0.6851-5.5529-0.97385-3.1312 0.6573-2.7104 1.5865-2.8486 2.0864-0.31016 1.3483-0.86611 2.4988-1.1756 4.4836-1.2059 10.623-2.594 10.915-1.2403 0.54956 2.5532-0.66862 4.4771-1.0817 6.6346-0.26616 1.39-7.2247 2.6524-10.889 3.8221-3.5834 1.1437-2.0851 3.4156 0.21635 1.8029 0.74278-0.52049 2.6568-1.6898 2.3798-0.57693-0.29161 1.1715-0.14423 3.7981-0.21635 5.6971-0.11441 3.0126-4.5758 4.0335-8.2212 3.9663-1.745-0.0321-3.1379 0.30665-4.4712 1.226-0.51835 0.35742-0.68265 0.55416-0.65397 0.97634 0.0278 0.40979 0.61405 1.0525 0.40156 1.9083-0.67315 2.7113-0.46699 7.058-1.4423 7.2476z"/><path d="m195.58 362.01c-0.24266 2.6068 3.3938 0.50311 11.43-0.6851 1.9428-0.28725 1.8777-5.2915 2.1995-8.0769 0.14688-1.2713-1.6146-0.0518-3.1731 0.61298-2.3262 0.99227-1.1194-1.5151-2.9928-1.1538-2.494 0.4809-4.4657 1.7976-6.0577 2.9207-1.8177 1.2822-1.1652 3.7926-1.4062 6.3822z"/><path d="m212.13 360.97c-2.0525 0.52126-2.0947-2.1248-1.3702-3.5337l0.72116-3.1731c0.19618-0.86322 1.7596-1.7956 3.742-2.6609 1.3731-0.59934 2.1538-1.2978 4.407-1.3775 0.67071-0.0237 0.75878 1.0221 1.4062 0.72116 1.2846-0.59704 4.1481-1.3372 4.1466-0.54087-2e-3 1.294 0.0347 2.6389 0.46875 3.75 0.49691 1.272 0.44418 2.8936 0.18029 4.363-0.20549 1.1442-6.5047 0.53441-8.8702 1.5144-2.1461 0.88911-4.8317 0.9375-4.8317 0.9375z"/><path d="m227.57 357.32c0.10478 1.5291 9.7023 0.62136 11.938-0.15298 1.1364-0.39364 2.7595-0.96234 2.9428-1.9667 0.40384-2.2119 1.6391-7.4714 0.77215-7.3187-2.7388 0.48264-4.6269 0.0361-7.3543-0.10998-2.7921-0.1496-4.8474 1.5262-7.1446 2.1591-0.84864 0.23383-1.3226 4.9262-1.1538 7.3893z"/><path d="m231.17 359.74c-4.7173-0.6769-6.2878 0.0429-9.1587 0.54087-0.96336 0.1671-1.1572 1.8838-1.911 2.2356-0.57978 0.2705-1.317 0.55447-1.6947 0.82933-1.0248 0.74581-1.0232 1.4745-1.8029 8.1851-0.0887 0.76367 1.8041 0.0156 4.6478-0.12635 2.7924-0.1394 4.6188-0.78518 6.0974-1.4602 0.38723-0.17678 1.1096 2.2599 0.14423 2.1274-2.0549-0.28212-3.0979 1.517-3.5697 3.1731-0.56664 1.9888-1.9748 4.6946 0.0361 5.625 3.9622 1.8334 6.8875-0.83231 11.755-2.1995 0.78018-0.21915 2.5394-1.0402 2.4159-2.1274-0.22028-1.9384-0.48394-2.997 0.54085-4.7957 0.40143-0.70456-4.7123-1.1475-4.566-0.31428 0.23394 1.3321-0.6627 0.26695-4.0879 0.71092-1.2185 0.15794-1.3792-2.2976-0.50481-2.4519l1.226-0.21635c0.87835-0.15501 0.24604-2.485 0.71336-4.8188 0.55952-2.7944 1.8465-4.6115-0.28066-4.9167z"/><path d="m241.41 376.11c-1.5006 1.019-2.0629-0.24673-1.5144-2.8846 0.31669-1.5232 1.1553-1.7254 1.9471-2.0192 1.6196-0.60096 5.6682-0.68016 4.7596-1.8029-0.48053-0.59381-13.129 0.9334-13.233-0.43269-0.26078-3.41 0.75873-6.3422 2.0553-8.149 0.74996-1.0451 2.8726-1.6182 4.5793-2.4159 2.2115-1.0335 5.0736-1.4755 5.6611-0.82933l0.72116 0.79327c0.76465 0.84113 7.9968-1.9043 7.6442-1.0096-2.1515 5.4602-1.616 9.3289-2.2356 9.2308-1.8782-0.29757-1.5176 0.40024-1.4784 1.0457 0.0404 0.66489 1.37 0.42093 1.7668 1.226 0.15088 0.3061-2.0673 0.94289-4.7301 2.6276-2.0509 1.2976-4.395 3.5688-5.943 4.62z"/><path d="m254.1 367.23c1.2605 0.97497 2.2624-0.20235 3.7842-0.87188 1.4375-0.63244 3.6739 0.0121 4.3605-0.0816 1.6642-0.22703 2.4803-0.93415 4.2111-0.84427 1.7968 0.0933 2.5564 1.7314 4.8485 1.8109 2.4981 0.0866 5.5339-1.0716 5.59-1.9515l0.5988-9.3939c0.0808-1.2675-2.202-0.52159-4.3254-0.92013-0.42208-0.0792-1.0827 0.67415-1.9366 0.6703-1.6648-8e-3 -3.9203-0.69915-5.5868-0.66879-2.9786 0.0543-5.9582 0.2191-8.9328 0.73353-0.70287 0.12155-0.88154 3.2578-1.6398 4.9381-1.6275 3.6066-2.2134 5.6189-0.97175 6.5792z"/><path d="m279.27 356.35-0.65779 9.7013c-0.051 0.75207 4.1331 1.9096 4.1237 0.63591l-0.0765-10.409c-8e-3 -1.0344-3.349-0.71788-3.3894 0.0721z"/><path d="m204.6 351.56c0.78893 1.4214 1.4947-0.98844 10.385-1.2981 3.5121-0.12233 3.0909-6.0449 3.3894-9.6635 0.0925-1.1211-8.5234-0.21096-13.089 2.524-0.43437 0.26022 0.41223 1.4273 0.43269 2.0553 0.0928 2.8497-2.1897 4.4509-1.1178 6.3822z"/><path d="m170.96 348.6c0.79819-0.0899-0.61298 4.8678-0.21635 8.113 0.0812 0.66456-5.3656 1.4144-9.1226 1.6947-0.84717 0.0632-1.6012-1.8982-1.3341-2.9207 0.40561-1.5528 0.97604-2.9967 1.0096-4.976 0.0144-0.84951 6.4423-1.5481 9.6635-1.911z"/><path d="m177.7 358.8c0.51965-1.2686-12.909 0.73602-17.055 1.6586-0.44112 0.0982-0.66937 1.6631-1.0605 2.4979-0.61231 1.307-1.1199 2.6079-0.59817 3.8482-0.86203 2.2711 4.5386-1.5414 14.568-0.96916 1.3288 0.0758 4.0877-0.22839 3.966-0.79766-0.44472-2.0793-0.61628-4.2933 0.1803-6.238z"/><path d="m166.99 369.05-8.2212 0.28846-1.226 3.6779-0.86539 6.4183 8.7981-1.8029z"/><path d="m219.45 348.24c-0.13054 0.60637 1.8032 0.0863 4.3504-0.16394 3.2225-0.31654 6.7419 0.26012 9.676-1.639 1.2355-0.79964 1.8146-1.2647 2.8486-7.7524 0.17833-1.119-0.76791-0.77623-0.97356-1.8389-0.32456-1.6772-2.8072 1.0024-7.5721 1.262-3.0838 0.168-3.6222 0.64476-5.625 1.2981-1.4804 0.48294-2.054 5.8132-2.7043 8.8341z"/><path d="m237.77 337.03c0.27644 0.45683 0.55288 0.86528 0.82932 1.226 0.77219 1.0075-1.6716 7.3984-0.64904 7.5361 3.9881 0.53699 6.3112-0.53412 9.5553-1.5865 1.2453-0.40397 1.5771 0.7655 1.0096 1.3341-1.4348 1.4378-3.3448 1.5741-3.6779 4.2187-0.25427 2.0191-0.31921 3.6592-0.25241 5.4447 0.0698 1.866 8.5472-0.21424 13.233-0.4327 2.287-0.10662 2.3368-2.1706 4.1466-2.7404 0.72814-0.22925 0.19052-7.0484-0.50481-7.0312-1.3642 0.0336-3.1305 0.16355-4.6161 0.0859-2.9967-0.15648-5.5776-0.4535-5.6243-1.0595-0.0863-1.1205 1.493-1.364 2.4519-2.9567l0.9375-7.8966c0.11734-0.98838-4.3199 0.49896-8.8944 1.5421-4.4364 1.0117-5.5228-0.18764-6.0774 0.41891-0.34781 0.38038-0.46315 1.2216-0.82802 1.3059-0.74248 0.17147-1.2659 0.21651-1.0391 0.59131z"/><path d="m255.69 341.79c0.86172-2.002 0.76323-5.2661 1.0096-8.0769 0.0962-1.0977 3e-3 -1.9721 2.5962-2.3077 4.746-0.61421 9.2347-1.3956 14.447-3.0662 1.2879-0.4128 0.63026 1.2003 1.4201 0.97462 1.1249-0.32141 1.1831-0.20137 1.0802 0.50503-0.5472 3.7564 0.5241 9.8682-0.68329 10.173-3.0791 0.77827-3.7003 2.0282-11.288 1.942-2.8608-0.0325-9.4196 1.8025-8.5817-0.14423z"/><path d="m265.08 344.47c3.4619-0.46214 6.2952-1.2541 8.9233-1.9245 2.6397-0.67333 2.337 0.33028 2.3157 2.4599l-0.0801 8.0259c-0.0106 1.0667-4.1014-0.54137-5.7991-0.12673-2.6383 0.64435-7.5113 0.93292-6.9653 0.0546 2.3483-3.7776-0.96757-8.1458 1.6055-8.4892z"/><path d="m278.55 353.11c-0.2954 0.71833 1.517 1.304 3.5837 1.8206 2.579 0.64467 5.5681 1.0682 5.5152 0.19356l-0.15661-2.591c-0.0812-1.3435 0.36572-2.6782 0.59217-4.0173 0.25525-1.5094-1.9433-2.6537-0.88063-2.7615 2.4335-0.24697 5.1019-0.95151 5.9936 1.6674 0.48852 1.4348-1.9422-1.2559-3.1811 0.64029l0.57692 9.5192-2.9567 0.0721c-1.2834 0.0313-3.009 2.3428-3.0332 3.0492-0.0899 2.6229-0.31581 6.3084 1.014 8.4171 0.89992 1.4271-2.5696 0.22108-3.8476-0.0131-1.2198-0.22353-1.964 0.77381-0.72991 1.3964 1.5718 0.79299 2.8382 2.001 3.7879 3.3639 2.9412 4.2208 6.5261 2.5696 10.02 4.8441 1.0372 0.67513 2.2684 3.1782 2.7666 2.473l0.84714-1.199c0.33754-0.47773 1.3399 0.56959 1.344-0.41234 0 0-0.52452-3.1642 0.0947-4.5185 0.73227-1.6015-0.18258-2.4054-0.64103-2.9269-0.392-0.44591 0.88982-0.61689 1.9347-0.77214 1.779-0.26432 6.6837 0.25104 5.3365-0.79327-0.78351-0.60739-1.7431-1.25-1.7104-1.9471l0.20985-4.4769c0.0411-0.87747-0.84218-1.5401-1.7308-2.2334-0.44244-0.34522-0.19185-1.1977-0.28846-1.7985-0.0887-0.5517-4.4637-0.63359-5.2229 7e-3 -2.3155 1.9545-1.5297 4.2372-1.4307 6.1306 0.15548 2.9734-1.8096 1.0985-2.0417 0.45306-0.44754-1.2445 1e-3 -1.7539 0.53606-4.4295 0.37885-1.8957 1.2684-3.2094-2.7316-4.1777-0.59917-0.14504-0.57805-1.6722 0.20397-1.3017 3.9045 1.8496 3.2736 0.29419 6.3876 1.2937 1.3026 0.41808 0.0841-5.2623 0.23022-8.1228 0.0329-0.6438-0.89056-1.883-1.5567-1.7825-0.79327 0.11972-1.8859 0.0508-2.6348-0.39045-0.47944-0.28252-0.33226-0.51156-0.50481-1.3643-0.0897-0.44337 1.4577-0.27777 1.5399-0.7394 0.35458-1.9917 0.20616-4.6549 0.0597-7.1263-0.0485-0.8185 1.8671-1.2774 1.8488-0.84863l-0.31395 7.3215c-0.0974 2.2707 1.4901 2.762 2.0834 2.8759l3.1643 0.60753c0.64758 0.12433 1.6825 0.0182 1.7308-0.93749l0.27607-5.4676c0.0551-1.091 2.0636-0.34864 1.9683 0.47418-0.22363 1.9304-0.29501 3.8906-0.43269 5.5529-0.11533 1.3925 1.3955 1.3926 2.8486 1.444 1.3738 0.0486 2.8052 0.0489 2.6875-0.5998-0.45205-2.4918-0.74593-4.8296-1.1749-7.3768-0.21195-1.2584 0.0641-1.9034 0.38761-2.867 0.44112-1.314-3.6066-1.1661-5.3257-0.98487-1.1997 0.12645-0.37581 0.97342-1.8619 1.0941-0.48304 0.0392-0.60874-1.7756-0.55143-2.2647 0.13637-1.1639-4.0888-1.5559-5.2768-1.7643-0.81701-0.1433-0.24343 2.1191-1.8459 1.9595-1-0.0996-1.2861-1.7758-1.5538-2.3376-0.73045-1.5329-5.0215-2.2978-9.1157-2.6603-0.81748-0.0724-1.146 1.8525-1.226 2.7324-0.31446 3.4619-0.54981 6.4864 0.69204 9.4886 0.82802 2.0018-2.9126 0.28904-4.3524 0.20397-1.0405-0.0615-2.9144-0.0714-2.3842 2.7069 0.39932 2.0925 1.4038 4.748 0.43269 6.2019"/><path d="m277.46 330.92 0.0124 9.2264c3e-3 2.1732 4.45 3.6061 4.6133 2.9276 0.76381-3.175-0.10235-5.2536-0.12461-8.2291-0.0107-1.4254 0.39138-2.4234 0.61192-3.6094 0.0387-0.20818-1.2532-0.89559-2.5478-1.0212-1.2814-0.1243-2.5656 0.31012-2.5651 0.70571z"/><path d="m316.19 340.12c-0.17474 3.0918 1.785 0.77144 1.5005 3.6771-0.21313 2.1776 0.62839 5.5264 0.0889 5.8537-0.86858 0.52699-2.4452 1.4603-3.1738 1.4001-0.84017-0.78801-1.6618-4.3574-1.8021-7.0251-0.0419-0.79619-0.24642-2.4131 0.22493-3.5317 0.57794-1.3715 3.2245-1.4872 3.1616-0.37415z"/><path d="m303.07 349.72c-1.0648-0.36683-1.9605 0.46221-1.9471 1.1538l0.14423 7.4279c6e-3 0.31292 1.4059 0.24154 2.6369 0.82113 1.817 0.85555 4.6108 1.3565 4.3977 0.34584-0.48911-2.3197-0.79174-5.0306-0.37083-8.106 0.1225-0.89505-3.2438-1.0856-4.8608-1.6427z"/><path d="m312.64 350.78c-1.4979-0.436-2.3675 0.55458-2.6057 1.9216-1.244 7.1406 1.1898 4.9237 0.3642 7.9881-0.37376 1.3874-2.0724 1.1886-3.2867 1.8626-0.92304 0.51238-0.72511 1.8007-0.50481 3.0288 0.28846 1.4424 0.25587 4.5474 0.61041 4.6584 0.7026 0.21998 1.6887 3.1466 2.4738 2.7819 0.99591-0.46265 1.5684-1.2457 3.109-1.2667 0.52546-7e-3 0.24711-4.5346 0.36072-8.27 0.0286-0.94037-0.8354-1.2308-0.59819-2.446 0.15961-0.81761 1.8441 0.72922 3.0878 0.97975 0.57075 0.11496 1.9584 0.28185 2.1984-0.15552 0.46655-0.85022 0.34389-1.2372 0.37224-2.0466 0.0394-1.1241 0.56153-2.8913 0.47571-3.9422-0.12734-1.5596-1.5385-2.2618-1.5574-3.1972-0.0262-1.2922-2.7462-1.3865-4.4995-1.8969z"/></g><path d="m297.16 369.12c-3.6709-0.46572-6.5552-1.1008-8.9729-0.78014-1.6073 0.21317-1.029 2.1996 0.17123 2.0782 3.8075-0.38493 5.58 0.36691 8.3654 0.86538 2.373 0.42468 1.4271-2.0378 0.43632-2.1635z" fill-rule="evenodd"/><g fill="#fff" fill-rule="evenodd"><g><path d="m305.02 372.44c-1.701-0.77798-2.3453 0.35224-2.8125 0.7969-1.6943 1.6126 0.0443 4.7596 0.0721 7.2713 5e-3 0.46387 0.80957 0.88822 2.0994 1.3323 0.69924 0.24076 0.72299 0.34744 0.62866 0.89813-0.19453 1.1357 3.2381 0.17668 3.3632-0.63667 0.28109-1.828-0.17002-4.655-0.0933-7.1845 0.0181-0.59461-2.1552-1.9732-3.2576-2.4774z"/><path d="m311.75 373.94c-0.53721-0.0528-1.6392 1.7468-1.5734 3.0048 0.12285 2.3487 0.0154 6.6142 0.75101 6.6892 3.0292 0.30898 8.9812 1.5811 8.9591 0.27458-0.0455-2.6889-0.501-4.2827-0.73427-6.7183-0.1088-1.136-2.2681-2.7462-3.6779-2.8846z"/><path d="m318.43 373.09c-2.1015-0.65506-4.8165-0.27605-4.1783-2.0287 0.94532-2.5961 0.18781-7.5903 1.081-7.8941 1.0394-0.35345 2.5952 1.3933 3.6364 2.4818-0.11169 2.4633 0.383 7.7284-0.53905 7.441z"/></g><path d="m317.26 388.16c-2.1068-1.6542-4.0065-1.7082-11.047-2.5029-0.78519-0.0886-0.54602 1.1879-0.16098 1.2332 1.7746 0.20899 3.1471 0.73798 4.4076 0.89236 1.6828 0.20612 3.0864 0.0438 4.2117 0.44512 2.6907 0.95966 3.6852 0.83102 2.5884-0.0678z"/><path d="m300.69 389.17c-2.2034-0.18459-3.1538-0.0671-5.0334 0.48806-0.84473 0.2495 2.5543 1.3856 5.8741 1.3148 0.83056-0.0177 1.4055-1.6147-0.84064-1.8029z"/><path d="m308.96 388.99c-0.58077-0.0368-1.7361 0.5562-2.1582 1.0014-0.54133 0.57097 6.3753 1.0824 5.0951-0.24349-0.87536-0.90659-0.84098-0.62522-2.9369-0.75791z"/><path d="m365.24 441.3c0.0382 1.0191 1.2482 1.9871 2.4396 2.0452 2.1623 0.70127 4.4602 0.72015 6.0992 3.0732 5.0121 7.1955 14.219 11.215 17.926 11.112 2.4084-0.0666-1.596-1.1775-4.2548-3.3173-1.7514-1.4095-4.2564-2.2073-6.851-4.4712l-4.7596-6.3462c-3.2757-4.3676-8.4856-6.0817-11.899-8.2933l-10.529-13.413c-5.6724-5.8419-15.506-6.7265-23.726-11.034-3.7579-2.3319-7.7444-5.1211-9.0865-10.601l-2.3798-0.36057c0.42135 1.9471-0.1003 3.8942 1.5144 5.8413 2.7705 2.0636 6.4275 3.5954 8.2933 6.2019 2.3829 3.329 4.0462 3.2602 6.2019 4.8317 0.69829 0.50906 2.006-0.0267 2.5962 0.43269 3.9798 3.0981 7.4038 3.4354 11.322 5.0481 0.74843 0.30805 3.1658 2.7453 1.0096 2.1635 0 0-2.8322-1.2961-4.399-1.3702-0.99872-0.0472-3.101 0.64904-3.101 0.64904-3.816 0.65152-9.4174-5.9006-12.692-4.9038l-4.976 1.5144c-6.1008 1.8568-13.247-0.38269-19.904-3.8221-0.98579-0.50933-4.9041-0.50311 5.625 4.1106 5.254 2.3022 8.3998 3.1806 11.25 3.1731 3.0516-8e-3 6.8789-0.87401 10.024 0.43269 4.38 1.8197 9.1772 3.1622 12.981 2.8125 1.7299-0.15905 3.4135-0.0226 5.1202 1.1538 1.9438 1.3399 5.2567 4.2989 8.3654 4.6154 0.55775 0.0568 0.30811 2.6431 1.8029 2.8846 1.925 0.31102 2.6714 1.4746 3.3783 2.3957 0.74698 0.97332 4.1624 0.45521 3.6169 2.0754"/><path d="m346.99 434.6c-3.3088 0.44526-5.661-0.52315-8.5457 0.39664-2.7086 0.86365-5.7548 0.52957-7.3558 1.7308-0.65264 0.48968-0.80497 0.94669-1.4028 2.1388-0.35711 0.71203-0.34186-1.3597-3.2125 0.24107-2.6028 1.4514 0.33773-1.5256 2.4159-2.7043 5.6554-3.0435 11.617-3.3243 17.524-4.1106 0.44897-0.0598 1.5582 2.1756 0.57692 2.3077z"/><path d="m318.72 441.81c-2.206-0.20518-4.4231 0.50743-6.6346 1.226-0.64103 0.20827-0.61597 1.8869 0 1.6587 5.3365-1.9772 10.169-1.2698 7.4459-2.2536-0.58192-0.21021-0.22248-0.57624-0.81131-0.63101z"/><path d="m305.5 444.37c1.0234 0.038 2.8515 1.2964-0.34255 1.4062-6.053 0.20816-15.812 0.80262-25.312 0.72115-1.8002-0.0154-9.4479 4.5375-14.279 6.5625-1.0494 0.43988-3.8614-1.92-2.0192-2.1635 5.9497-0.78622 13.85-6.599 15.505-6.5625l9.8077 0.21634c2.9886 0.0659 2.4286-0.99462 3.4255-0.9375 0 0 2.6037 0.31909 3.9114 0.41213 3.0956 0.22024 9.3038 0.34509 9.3038 0.34509z"/><path d="m257.39 434.92c4.0361-0.59786 5.8577-0.65959 8.2572-1.7668 1.525-0.7037 3.4685-2.5774 4.2909-2.0913 1.4109 0.83401 2.6683 1.5237 4.0024 1.8029 0.58444 0.12231 0.9272 1.4209-0.61298 1.262-1.5558-0.16044-2.6723-2.0682-5.0481-1.4423-1.8308 0.48235-0.22035 2.4881-3.101 3.2452-0.9267 0.24355-3.7145 0.98308-5.5291 0.70568-2.2384-0.34216-3.7113-1.5002-2.2593-1.7153z"/><path d="m231.42 411.11c1.0654-0.44606-2.6117-1.5974-3.9844-1.0817-4.2569 1.5991-6.7161 2.8676-11.971 5.607-1.0293 0.53655 5.7101-0.16029 6.1659-0.37861 4.67-2.2371 5.9381-2.5342 9.7897-4.1466z"/><path d="m208.26 419.27c0.58732 0.78779-1.7209 1.3359-2.2356 1.3161l-2.8125-0.10818c-0.68871-0.0265 4.1145-2.4601 5.0481-1.2079z"/><path d="m179.07 432.69c-2.0155 0.37975-1.0107 2.3858 0.46875 2.488 7.9204 0.54687 7.7218-4.1737 16.767-3.7861 5.962 0.25549 9.4808-0.17895 12.368-1.9832 1.3158-0.8223 2.975-3.7276 1.3702-2.8846-5.3307 2.8001-10.767 1.2647-16.911 2.524-3.3857 0.69394-6.533 2.7316-9.7968 3.8266-3.1942 1.0715-2.8805-0.44572-4.2657-0.18473z"/><path d="m213.58 427.39 3.5337 2.7404c0.36908 0.28623-0.7226 0.94806-3.9664-1.1178-3.0344-1.9325-0.49854-2.3448 0.43269-1.6226z"/><path d="m190.1 440.98c3.6521-0.44898-0.2602 2.435-1.1178 2.2716-3.0518-0.58121-6.3024-0.32353-9.4471-0.57693-3.096-0.24947 1.1463-1.4998 2.3798-1.8389 0.77109-0.21199 5.221 0.50863 8.1851 0.14423z"/><path d="m172.9 424.29c1.9253-0.21042 0.79665 1.8792-0.74589 1.8371-2.671-0.0729-6.0806 1.5975-5.6206 1.0941 2.156-2.3596 4.3707-2.7131 6.3665-2.9312z"/><path d="m159.97 410.83c0.0803 0.8873 3.0431 0.19172 5.0007 0.0386 1.3762-0.10764 1.3734-1.8236-0.29735-1.5522-1.435 0.23317-4.7572 0.91801-4.7034 1.5136z"/><path d="m113.48 445.45c-2.6888 0.67244-5.4026 1.1294-8.0303 2.43-1.0554 0.52243-1.1725 2.4716-0.33508 2.1511 8.6996-3.3292 10.104-5.0161 8.3654-4.5811z"/><path d="m152 418.52c-1.6662 0.0565-4.8278 0.0152-5.2054 0.50481-1.6402 2.1262 2.8051 1.1177 4.7727 1.0212 2.6681-0.13079 0.86178-1.5406 0.4327-1.526z"/><path d="m155.59 418.44 4.399-0.64904c1.2275-0.1811 1.0068 1.5794-0.55505 1.6448-4.6549 0.19495-5.4936-0.75235-3.844-0.99574z"/><path d="m154.01 418.15c2.5848-0.6637 1.3626-1.3032 0.71634-1.3275-0.54072-0.0203-0.76884-0.20496-0.97751 0.1208-0.24816 0.3874-0.20149 1.3255 0.26117 1.2067z"/><path d="m264.01 376.01c-0.13298-0.061-0.6814-1.0687 0.56463-0.67033 1.6194 0.51774 5.5218 1.0511 8.5008 2.3625 1.5174 0.66797 0.80351 3.1691-0.0721 2.5962-2.9808-1.9504-6.0434-2.9344-8.9933-4.2883z"/></g><g stroke="#000"><g><path d="m212.73 294.76c0.28416-1.782 9.0672-3.1714 20.732-5.9921 14.493-3.5045 32.365-7.8264 44.904-10.709 4.502-1.0349 7.1922 3.478 10.776 5.242l21.044 10.358c0.55417 0.27277 1.5692 0.77048-1.8029 2.8846-1.3676 0.85745-0.64549 3.7517-1.1348 6.4328-0.31756 1.7398-3.7866 0.58152-3.6634 1.2326l3.7428 19.768 1.226 7.7164c3.7107-1.9562 7.0709-1.6337 10.529-1.9471 2.5048-0.22701 4.7948 2.0807 4.9038 3.5337 0.34246 4.5625 0.18388 7.5434-1.8329 8.5199-2.9646 1.4354-2.9057 2.8725-2.8335 6.5188 0 0-0.64645 18.9 0.64904 28.596 0.66064 4.9447 1.7762 10.446 0.84789 11.639l-0.99725 1.2821s0.46114 1.9214 0.7284 3.6239c0.29064 1.8514-0.20247 5.6214-0.20247 5.6214 1.3361 6.4355 5.2077 9.2216 9.3379 11.579 8.0577 4.5984 18.905 4.3108 25.703 13.489 3.6114 4.8763 5.0584 6.5983 6.3187 8.1796 0.66659 0.83635 1.6231 2.4523 3.1346 3.211 14.694 7.3761 13.149 14.104 20.156 17.308 2.7376 1.2515 5.2403 3.6304 6.4904 3.8942 1.2505 0.26391 5.2218 3.1104 5.3827 4.4639l-52.041-5.1851-47.38 11.899-57.26-13.486-56.322 13.341-48.389-12.692-44.712 8.726-5.4838-3.0237c0.34292-3.2692 1.5332-7.7709 4.437-10.267 7.9253-6.8114 11.629-6.4258 15.758-9.7866 6.4073-5.2149 4.9372-10.8 7.2677-16.217 2.9264-6.8019 7.8144-7.0982 12.367-8.8017 9.1254-3.4149 11.74-6.8106 18.808-12.442 2.0616-1.6426 5.3698-3.3224 7.2203-4.3939 0 0-0.0905-5.467 0.71244-7.9378 1.3813-4.2509 4.1712-8.7681 5.4087-16.803l0.43269-12.981c0.15334-4.6001-0.17759-6.1825 1.4423-8.7981-1.993-2.0411-3.479-2.9856-3.4615-4.0137 0.0623-3.6689 0.71388-7.0629 3.2313-10.695 3.5831-5.1694 7.2415-3.4153 11.097-5.2922 0.72614-0.35349 1.2593 0.45569 2.2108 0.44507 1.5275-0.0171 1.6243-2.1326 5.2119-2.2341 2.5033-0.52097 6.001 0.33704 9.7582 0.90975 2.1285 0.32444 4.5629-3.4973 10.765-4.517 2.0193-0.33202 3.9041 0.34879 5.389 0.11798 2.5-0.38859 3.2246-1.857 6.2762-1.9245 1.2424-0.0275 3.1443 1.0285 3.4398-0.66291l2.8234-16.159c0.1642-0.93976-1.3851-1.3897-1.3738-1.9348l0.1566-7.5881c0.025-1.2124-2.2782-0.58863-2.2654-1.9435z" fill="none" stroke-width=".5"/><path d="m296.1 473.17c20 0 35-12 55-12 16.945 0 30.301 8.6141 46.15 11.246l4.5602-11.427c-17.919-1.5014-32.165-11.819-50.71-11.819-20 0-35 12-55 12s-35-12-55-12-35 12-55 12-35-12-55-12c-18.545 0-32.791 10.317-50.71 11.819l4.5602 11.427c15.849-2.6315 29.205-11.246 46.15-11.246 20 0 35 12 55 12s35-12 55-12 35 12 55 12z" fill="#fff" fill-rule="evenodd" stroke-width="1px"/><path d="m439.1 186.97c4.364 194.52-37.277 372.36-198 488.5-160.72-116.14-202.36-293.98-198-488.5h198z" fill="none" stroke-width="5"/></g><path d="m269.73 32.131 2.9914 5.4963 2.8385 5.0458v11.894l0.4773 6.1271 39.267 3.7844 1.7387-6.7578 1.2614-7.1182 1.2614-6.938 1.4148-7.1182 0.79144-0.2703 50.62 8.4697 0.94486 3.0636 0.63072 3.1536 0.79144 3.2437 1.0983 2.8833-3.1536 14.056 1.4222 1.0812 21.598 5.4062 2.685-8.1994 2.5234-8.3797 2.0529-8.3796v-0.99137l1.0983-0.63072 0.14611-0.0901h0.46756l1.4222 0.90102 27.752 8.5599 14.038 4.0547 3.1536 13.606-6.1542 19.102-5.8296 19.192-5.3611 19.192 1.4148 1.2614 0.47729 1.4416v3.3338l0.31415 1.712 0.46755 1.2614 0.79144 2.2526-0.14611 1.8922-0.63072 2.0724-0.94485 1.712-0.94486 1.8922-0.78413 2.0724-0.31414 1.8922-0.4773 1.712-0.63072 1.6218-0.78413 1.3515-26.184-7.839-26.491-6.6676-26.815-5.226-26.806-4.0547-27.13-3.0635-26.968-1.7119-27.121-0.27031-27.13 0.72082-26.968 1.8922-27.121 3.2437-26.968 4.2349-26.815 5.4963-26.653 6.8479-26.491 7.7489-2.0529-0.81092-1.729-1.2614-1.4222-1.8023-2.9916-3.6041-0.79144-3.3338-1.2614-3.1536-1.4149-2.9734-1.108-3.3338 0.31414-2.3427 3.6314-1.2614 3.6221-1.2614 3.0004-1.4416-10.722-32.978-10.885-33.248-0.78413-0.72082-0.14611-0.54061v-0.45051l24.283-7.9291 12.461-3.6041 12.299-2.9734 6.3072 7.1182 1.5853 6.1271 2.0456 6.1271 2.3694 5.8567 24.761-5.4963-0.95459-6.938-1.729-7.1182-1.5756-6.938-0.94486-7.1182 0.78414-0.81092 47.791-8.0192 0.78414 0.45052 0.14611 0.1802v1.0812l0.31414 0.45051v0.36041l0.31414 0.45051 6.1452 8.5598 0.4773 5.3161 1.2614 5.226 0.94486 5.226 9.7761-0.63096 10.254-1.0812 9.9293-0.99137 9.6232-1.0812 0.31658-7.4786-0.46999-14.777 0.14611-7.1182z" fill-rule="evenodd" stroke-linejoin="round" stroke-miterlimit="10" stroke-width="1.2615"/></g><g fill="#fff" fill-rule="evenodd" stroke="#fff" stroke-linejoin="round" stroke-miterlimit="10" stroke-width="1.2615"><path d="m246.47 34.383h22.724l0.14611 4.8656v5.3161l0.31414 5.5864-11.2-0.18021-22.877-0.45051-11.515 0.0901-11.2 0.81092-0.14611-3.7843-0.14611-3.8745v-3.9646l0.31414-4.325h21.931z"/><path d="m160.01 40.691 1.8994 6.2172 1.7387 8.2895-8.8661 1.6218-9.3348 1.0812-9.3436 1.3518-9.4878 1.6218-9.0287 1.8922-1.4222-4.8656-1.108-4.8656-0.63071-4.5953 8.7039-1.5317 9.0195-1.5317 18.841-3.1536z"/><path d="m323.29 38.438 16.047 2.523 16.038 2.7932 15.885 2.9734-2.676 15.408-12.11-2.7031-11.948-2.4328-11.957-1.8921-12.425-1.8023 0.63072-3.6942 0.46756-3.7843 0.79144-3.8745z"/><path d="m77.543 57.36 0.93755 0.1802 2.3524 6.938 2.3524 7.2984-10.975 3.1536-11.128 3.1536-11.128 3.2437-10.659 3.5141v0.27031l-1.8824-4.8656-1.4051-4.6854-1.4149-4.5953 10.821-3.514 21.309-6.5776z"/><path d="m228.02 51.413 0.31414 17.66-0.4773 0.27031h-4.8928l-5.046 0.54061-4.8923 0.45051-0.14611-4.5953 0.46756-9.0104v-4.5953l4.8926-0.27031 4.7306-0.1802z"/><path d="m230.22 51.413 8.4696 0.27031 8.4609 0.36041 8.1543-0.1802 0.46756 4.2349-0.30683 4.7755-0.14612 4.4151-0.14611 4.0547h-24.778z"/><path d="m257.99 52.044 11.209 0.45051v1.2614l-0.14611 0.63072 0.14611 0.1802 0.46756 15.137-1.2444 0.63047-10.749-0.63047v-5.9457z"/><path d="m163.17 57.089 1.4222 2.1625 2.5236 15.498-4.2618 0.45051-4.0997 0.81092-3.9467 0.27031-2.0456-8.65-0.47729-4.1448-0.31414-4.2349z"/><path d="m149.15 59.883 0.78413 2.5229 0.31415 3.6943 1.0983 3.7843 0.78413 3.3339 0.14612 3.514-10.209 1.4416-10.047 2.0724-10.371 2.3427-1.4051-4.0547-0.79144-4.5052-0.62097-4.7755-0.94486-4.2349 7.5416-1.9823 7.8479-1.3515 8.0103-0.99137z"/><path d="m319.83 55.197 12.308 1.8921-2.8385 17.3-3.1536-0.63072-6.3162-0.27031-3.1536-0.81092 0.94486-6.0369 0.94485-5.7666z"/><path d="m404.87 53.936 10.722 2.7932 10.416 3.514 10.416 3.3338 10.569 3.1536-0.31414 3.8745-0.94486 3.7843-1.4222 3.7844-1.4222 3.514-13.876-4.7755-14.2-4.325-14.2-3.6042z"/><path d="m334.36 57.36 8.7219 1.6218 16.948 3.0635 8.0824 2.2526-1.4222 8.1093-2.0626 8.0192-11.092-1.8922-11.092-2.1627-10.929-1.5317z"/><path d="m210.35 64.027 0.31414 14.417-12.308 1.3518-12.146 1.2614-11.678 1.5317-2.685-14.417 1.4222-0.63072 12.777-1.4416 12.308-0.99113z"/><path d="m276.14 62.406 38.961 3.9646-1.5926 14.056-18.759-1.6218-19.084-0.90102-0.32388-3.7844v-4.1448l0.32388-3.8744z"/><path d="m83.797 74.389 1.5853 3.9646 1.2614 4.0547 1.108 4.2349 1.4222 4.0547-10.767 3.1536-11.092 3.3338-11.083 2.7932-1.746-5.3161-2.216-5.3161-1.8995-5.4062 22.021-6.5776z"/><path d="m226.76 71.596h14.353l0.46756 17.21-1.2614 0.72082-26.815 0.36041-0.63072-4.2349v-4.5953l0.14612-4.4151 0.31414-4.1448 6.4696-0.63072z"/><path d="m243.16 71.596h17.768l8.4158 0.63072 0.31414 17.3h-26.346z"/><path d="m117.75 77.273 0.78414 3.5141 1.5683 7.4786v3.4239l-5.1721 0.81092-2.3524 0.63047-2.0456 0.99137-12.858 2.9734-4.388-14.777 7.9923-1.8921z"/><path d="m164.5 77.273h2.9644l3.1175 16.399-8.2716 1.2614-8.2714 0.90102-8.4246 1.2614-0.31657-3.2437-0.93756-3.3338-1.091-3.1536-1.091-3.3338-0.62098-3.3338z"/><path d="m47.62 83.85 1.9116 3.7844 1.5926 4.1447 1.4319 4.4151 1.5926 4.2349-6.0551 2.4328-2.874 0.90103-5.5776-16.579 2.5492-1.2614 2.7121-0.90102z"/><path d="m139.17 81.057 1.5853 5.5864 1.4319 5.4963 0.9546 5.9469-8.7489 1.4416-8.2624 1.7119-0.31414-0.81092-0.4773-1.2614-0.31414-0.72082-0.80118-0.45051-0.63071-3.3338-0.79144-3.1536-0.63802-3.2437-0.14612-3.4239 0.14612-0.36041h0.79143v0.45051l0.79144-0.90102 3.8204-0.99088 3.8113-0.54061 3.8203-0.63072z"/><path d="m399.93 70.965 12.038 2.9734-1.2517 5.226-1.8751 5.226-1.5683 5.4963-11.398-2.7031 0.46756-4.0547 1.091-4.1448 1.2517-3.9646z"/><path d="m316.51 74.75 8.9562 0.90102 8.6411 1.1713 8.3255 1.4416 8.6408 1.2614-0.78414 5.5864-2.3597 11.533-0.78413 0.81092-33.617-4.7755 0.14612-2.7031 0.46755-2.8833 0.79144-2.8833 0.93756-2.7932v-4.5953z"/><path d="m372.7 74.389 22.229 5.3161-0.4773 3.6041-0.79387 3.7844-0.9546 3.6041-1.4319 3.2437-5.3974-1.3515-5.235-0.99088-5.244-0.90102-5.7127-1.0812 0.79144-5.226 0.9546-4.9557z"/><path d="m414.63 74.75 5.4872 1.8922 11.308 3.0635 5.4962 1.8023 5.3341 2.3427-1.2517 4.8656-1.5683 4.5052-1.0983 4.5052-9.425-2.3427-9.5781-2.613-9.5779-2.5229 1.4148-5.3161 1.729-5.0458z"/><path d="m354.03 80.066 10.299 2.2526-0.78413 5.8567-1.4051 5.6765-1.2444 5.4963-5.6224-0.36041-5.1448-0.90102 0.78413-5.8568 1.2444-6.3072z"/><path d="m89.104 93.041 1.5585 3.6041 1.3978 4.1448 1.0812 3.9646 1.091 3.8745-2.9554 0.36041-2.631 0.90103-2.7932 1.2614-2.64 0.81092-2.9554 0.36041-1.0812-4.1448-1.5585-3.4239-1.3978-3.5141-1.2322-4.1448 3.7212-0.72082 3.2617-1.2614 3.5681-1.2614z"/><path d="m72.272 97.726 1.5853 5.1359 2.216 4.8656 1.746 4.8656-8.8843 2.8833-9.0285 2.523-9.0373 2.7932-2.0626-4.8656-1.8995-5.0458-1.5853-5.226 9.0373-2.7932 8.8753-2.5229z"/><path d="m223.28 91.779 0.31414 4.8656 0.31414 4.8656 0.31658 4.9557-0.78414 0.81092-9.8392 0.45051-9.5058 0.81092-9.1997 0.90103-1.2687-7.4786-0.94486-7.6588 0.31414-0.45051 7.7671-1.1713 7.4517-0.45051z"/><path d="m259.26 91.149-0.4773 14.957-4.7574 0.1802h-4.9106l-4.9198-0.2703h-4.9106l-3.325 0.0901-6.9739 0.36041-3.3335 0.45051v-5.0458l-0.14611-5.4062v-4.8656z"/><path d="m190.93 93.942 0.64046 7.6588 0.79144 7.839-7.4517 0.45051-7.4517 1.1713-7.2983 0.90103-7.4515 0.63071-1.108-3.6041-0.46755-3.6041-0.63803-3.9646-0.94485-3.6942 7.4517-1.2614 7.92-1.0812 8.0912-0.81092z"/><path d="m261.93 91.149 10.831 0.1802 10.362 0.27031 10.524 0.81092-1.729 15.498-15.39-0.63072-15.696-0.72082 0.14611-3.7844v-4.1448l0.14611-3.7844z"/><path d="m155.92 98.087h1.5756l1.4222 4.9557 0.78414 5.0458 0.79144 4.9557-7.2625 1.0812-14.984 2.4328-7.2622 1.7119-1.0983-3.3339-0.94486-3.6942-0.79144-3.7843-1.0983-3.6042 6.9379-1.9822 7.1003-1.4416z"/><path d="m296 92.68 15.227 1.6218 1.2614 0.63072 1.4148 0.0901h2.82l10.056 1.5317-0.79143 7.2083-1.4051 7.2984-10.209-0.99137-9.8932-0.90102-10.2-0.81092 0.14611-5.226z"/><path d="m395.43 89.256 7.2893 1.4416 6.9742 1.7119 6.8208 1.8922 7.1273 1.7119-0.79144 4.1448-1.4222 3.9646-1.5853 4.0546-1.2687 4.1448-28.689-7.5687 1.108-2.2526 0.4773-2.3427 0.63802-2.0724 1.4222-2.0724 0.14611-2.0724 0.9546-2.3427z"/><path d="m124.84 103.49 1.0983 2.8833 2.6853 12.254-14.363 3.2437-13.723 3.0635-1.4149-3.4239-1.2687-3.6042-1.2614-4.0547-0.78413-3.514 9.6229-2.523 9.6229-2.2526z"/><path d="m329.31 96.825 9.0283 1.2614 18.534 3.1536 9.0285 0.72082-3.1716 15.047-9.0285-1.712-9.1907-1.4416-9.1814-1.0812-8.551-1.3515 1.108-7.3885z"/><path d="m93.167 110.7 4.2168 14.957-24.499 6.4875-1.7217-4.4151-1.4051-4.9557-1.4051-4.7755 6.0907-1.712 6.3975-1.6218 6.3975-1.712z"/><path d="m426.48 96.825 3.6314 0.99088 3.7843 1.2614 3.3158 1.4419-4.8926 16.489-11.515-3.9646 1.5756-5.7666 1.8922-5.226z"/><path d="m245.52 108.54 22.724 0.27031 22.715 1.4419 16.723 1.0812 16.246 1.8023 16.092 2.3427 15.939 2.9734 15.777 3.3338 20.345 4.1448 20.201 4.5953 20.192 5.6765-0.79144 4.1447-1.5756 4.2349-1.0983 4.1448h-1.7387l-2.0529-0.45051-1.729-0.81092-28.085-7.7489-26.031-5.5864-26.499-4.6854-26.671-3.3338-26.977-2.4328-26.815-1.0812h-26.977l-27.139 1.0812-26.824 2.4328-26.662 3.4239-26.662 4.5953-26.346 5.5864-26.346 6.938-25.715 7.9291-1.5756-3.3338-1.5756-3.6042-0.94486-4.1448 19.246-6.4875 19.877-5.6765 20.039-5.226 20.355-4.7755 20.345-4.1448 9.1544-1.0812 9.1456-1.4416 9.47-1.0812 9.1454-1.2614 9.0012-0.99137 8.3617-0.63072 22.868-1.4419z"/><path d="m368.11 102.5 8.3615 1.4416 8.2083 2.1627 8.0374 1.8922 8.2086 1.6218-0.31414 3.4239-1.108 3.7844-2.3597 7.4786-5.2079-0.81092-5.3613-0.99088v-0.27031l-0.63071-0.45051-0.79144 0.27031h-0.94486l-0.94486-0.18021-0.94729-0.45051-17.354-3.6041 0.46756-3.7844 0.94486-3.6041 0.94485-3.9646z"/><path d="m65.442 118.9 1.0812 2.523 0.77439 2.9734 0.77439 2.613 0.77439 2.9734 1.3978 2.5229-13.335 4.6854-1.5585-3.0635-1.3978-3.514-1.0812-3.6042-1.2444-3.514 6.6768-2.4328z"/><path d="m403.45 110.7 9.7854 2.523 9.6229 2.7932 8.9925 3.3338-0.94486 4.325-1.4222 4.7755-1.2614 4.325-14.2-4.0546-14.354-3.4239 1.2614-4.6854 1.2614-4.8656z"/></g></svg>
