<?xml version="1.0" encoding="UTF-8"?>
<svg width="471.58" height="693.44" enable-background="new 30.5 31.5 412 533" version="1.1" viewBox="30.5 31.5 471.58 693.44" xml:space="preserve" xmlns="http://www.w3.org/2000/svg" xmlns:cc="http://creativecommons.org/ns#" xmlns:dc="http://purl.org/dc/elements/1.1/" xmlns:rdf="http://www.w3.org/1999/02/22-rdf-syntax-ns#"><metadata><rdf:RDF><cc:Work rdf:about=""><dc:format>
          
          
          
          
          image/svg+xml
        
        
        
        
        </dc:format><dc:type rdf:resource="http://purl.org/dc/dcmitype/StillImage"/></cc:Work></rdf:RDF></metadata><path id="path3001_1_" d="m262.3 719.2a61.112 61.112 0 0 0-21.767-21.577c-12.643-6.628-10.219-6.4236-91.215-7.0951-79.287-0.64236-77.944-0.55477-88.806-6.0732a60.367 60.367 0 0 1-27.096-31.607l-2.3796-6.3506-0.27738-230.56-0.26278-230.56h45.637c44.147 0 45.578 0 43.972-1.8249a8.7594 8.7594 0 0 1 1.3431-11.679l3.0074-3.095-3.1826-9.4018h-4.7301c-5.8396 0-9.066-2.9198-9.066-8.1317 0-4.3797 2.4234-6.6864 9.9857-9.7668 6.3652-2.5986 9.1828-5.387 8.5112-8.4382-0.24818-1.1825-2.5694-12.935-5.1243-26.132s-4.9345-24.293-5.2702-24.658a14.234 14.234 0 0 0-6.3652 1.6789 47.841 47.841 0 0 1-5.7374 2.1461c0-0.11679-1.7811-6.2484-3.9563-13.636-2.1752-7.3871-3.8687-13.49-3.752-13.577a43.797 43.797 0 0 1 12-3.6352 54.863 54.863 0 0 1 1.6789 5.4892 17.519 17.519 0 0 0 1.9855 5.2118 14.599 14.599 0 0 0 8.0295-2.4818 51.418 51.418 0 0 0-1.4599-5.5768 51.608 51.608 0 0 1-1.4599-5.606 43.023 43.023 0 0 1 14.015-4.2775 17.256 17.256 0 0 1 1.9855 5.1973c0.71535 2.6278 1.4599 5.0659 1.6351 5.4162a13.869 13.869 0 0 0 8.263-2.1023 51.097 51.097 0 0 0-1.4599-5.5476 16.059 16.059 0 0 1-1.0511-5.4892 40.877 40.877 0 0 1 11.927-2.8322c0.33578 0.39418 7.5477 24.483 7.5477 25.183a18.789 18.789 0 0 1-5.5038 1.7227c-3.022 0.67156-5.5038 1.6497-5.5038 2.1461s8.9054 22.366 10.424 25.417c0 0.10219 4.8761-0.86134 10.745-2.1169s15.636-3.095 21.723-4.0731l11.066-1.7665v-27.446l-10.482 0.26279-0.81754-12.76a87.39 87.39 0 0 1-0.33578-13.314 25.738 25.738 0 0 1 6.0294-1.2555c6.2776-0.84674 6.6134-0.45257 6.6426 7.7667 0 4.3797 0 4.3797 3.1096 3.7374a32.512 32.512 0 0 1 4.5841-0.62776c1.1679 0 1.4599-1.2555 1.1241-6.2484l-0.33578-6.2484 15.475-0.58396v12.073h9.212l-0.39418-6.4966-0.40877-6.4966h12.468l0.52557 4.2483c0.27738 2.3358 0.80295 8.409 1.1387 13.49l0.61316 9.2412h-6.1316c-5.387 0-6.0732 0.21898-5.6206 1.7519 0.27738 0.96354 1.4599 7.0367 2.6862 13.49l2.1461 11.679h45.505l2.1461-11.679c1.1825-6.4528 2.3942-12.511 2.657-13.431 0.42338-1.4599-0.37957-1.7373-5.2994-2.0001-5.4892-0.27738-5.8396-0.42337-5.6206-2.803 0.10219-1.3723 0.48176-7.2995 0.84674-13.241l0.67156-10.745h12.993l-0.35038 6.2484-0.35038 6.2484 4.1169 0.30658c4.0439 0.29198 4.1169 0.24819 4.7301-3.4892a49.243 49.243 0 0 0 0.64235-6.2922c0-2.4818 0.073-2.4964 7.5915-2.1607l7.5769 0.33578-0.33578 6.117-0.33577 6.117 3.8979 0.81755a9.5478 9.5478 0 0 0 4.3797 0.27738 25.446 25.446 0 0 0 0.96353-6.4528c0.48177-6.6134-0.61316-6.1024 9.504-4.5111l3.8103 0.59856-0.54016 5.1827c-0.29198 2.9198-0.81755 9.0368-1.1387 13.752l-0.61316 8.5696-4.6717-0.72995a11.869 11.869 0 0 0-5.3286-0.073 75.784 75.784 0 0 0-0.1022 13.752l0.55477 13.139 13.606 2.2044c7.4747 1.2117 17.125 3.022 21.431 4.0147l7.8397 1.8103 2.7154-6.1316a123.04 123.04 0 0 0 8.0003-20.001 47.593 47.593 0 0 0-6.0148-1.7373l-5.606-1.4599 3.606-12.176a125.92 125.92 0 0 1 4.1899-12.745 21.052 21.052 0 0 1 11.913 2.9198 38.819 38.819 0 0 1-1.4599 6.1024c-0.81754 2.7008-1.4599 4.9637-1.4599 5.0367a16.147 16.147 0 0 0 2.7446 0.67155 33.753 33.753 0 0 1 4.3797 1.1679c1.2263 0.48176 1.9417-0.70076 3.2702-5.4892s2.0293-6.0002 3.4308-5.606c0.94894 0.27738 4.2629 1.2555 7.2995 2.2044l5.606 1.7081-3.5914 11.679 2.1752 0.81754c6.4528 2.4234 6.2192 2.5256 8.1317-3.7958l1.7957-5.8396 5.8396 1.9855a18.512 18.512 0 0 1 5.8396 2.6132c0 0.93433-7.1973 25.607-7.6061 26.074a21.315 21.315 0 0 1-6.0148-1.7665 25.329 25.329 0 0 0-5.9856-1.8541c-0.91974 0.91974-10.365 52.557-9.9419 54.25 0.35038 1.4599 2.9198 3.1826 8.5258 5.679 8.6864 3.8979 10.686 6.4236 9.4894 11.913-0.83215 3.7812-4.0147 5.8396-9.0368 5.8396-3.9563 0-4.2045 0.18979-5.8396 4.2775-2.1169 5.5476-2.1315 5.4454 1.3577 8.7594a6.9491 6.9491 0 0 1 0.81755 10.672l-2.1753 2.3066h91.317l-0.26278 230.56-0.23359 230.58-2.5986 7.0951a55.228 55.228 0 0 1-35.87 34.585c-6.3944 2.1607-7.6061 2.2045-81.433 2.7592-67.506 0.51097-75.36 0.72995-79.273 2.2774a60.484 60.484 0 0 0-30.848 24.979 28.731 28.731 0 0 1-5.241 6.7448 18.862 18.862 0 0 1-4.0877-5.7228zm134.92-534.32a251.44 251.44 0 0 0-31.476-9.9857 394.17 394.17 0 0 0-98.908-11.679 395.87 395.87 0 0 0-88.952 9.2266 336.74 336.74 0 0 0-41.476 11.898c-0.87594 0.51096 53.783 0.89054 129.65 0.90514 72.148 0.10219 131.16-0.073 131.16-0.27738z" fill="#0050b5" stroke-width="14.599"/><path id="path2995_1_" d="m45.216 664.81c-4.3067-0.96354-5.0367-1.5329-7.1389-5.6936a71.448 71.448 0 0 1-3.9271-9.9857l-1.5913-5.3578 2.2337 0.61316a128.33 128.33 0 0 0 56.192-1.2117c6.5988-1.6789 16.059-3.5914 20.979-4.2483a155.9 155.9 0 0 1 44.469 2.0877 123.68 123.68 0 0 0 40.994 5.3286 114.4 114.4 0 0 0 23.986-1.5767 159.13 159.13 0 0 1 37.957-6.3944 125.55 125.55 0 0 1 39.417 3.8104 135.1 135.1 0 0 0 69.448 0.33577 139.79 139.79 0 0 1 67.594-0.55476 130.02 130.02 0 0 0 60.571 2.5986l3.7228-0.71535-1.5621 5.3578c-2.7738 9.504-5.0805 13.781-8.0149 14.891a123.74 123.74 0 0 1-34.337 1.0219 189.79 189.79 0 0 1-18.979-3.5622 181.03 181.03 0 0 0-17.898-3.533 132.47 132.47 0 0 0-49.987 3.4454 140.97 140.97 0 0 1-65.447 0.93434 136.3 136.3 0 0 0-72.44-0.96354 136.78 136.78 0 0 1-72.28-0.61316 133.04 133.04 0 0 0-67.156 1.2263 96.719 96.719 0 0 1-26.964 3.4162 122.18 122.18 0 0 1-19.811-0.68616zm4.2921-44.454c-2.4818-0.16059-7.5331-0.80295-11.241-1.4599l-6.7448-1.1095v-18.979l2.7446 0.58396c1.4599 0.30658 7.7375 1.0803 13.84 1.7081a123.81 123.81 0 0 0 45.009-4.2483 97.974 97.974 0 0 1 34.322-3.2702 95.886 95.886 0 0 1 35.038 3.46 92.937 92.937 0 0 0 33.972 3.4454 97.711 97.711 0 0 0 30.965-2.6716 110.95 110.95 0 0 1 41.622-4.4965 106.72 106.72 0 0 1 28.833 3.0658 121.04 121.04 0 0 0 41.242 4.3797 103.92 103.92 0 0 0 28.205-3.7082 106.43 106.43 0 0 1 30.483-3.7228 119.79 119.79 0 0 1 41.958 4.2629 144.53 144.53 0 0 0 58.206 0.81754c2.2191-0.59856 2.2482-0.48177 2.2482 8.9638v9.577l-4.2483 1.2847a126.52 126.52 0 0 1-24.731 1.2847 97.653 97.653 0 0 1-33.797-3.314 138.4 138.4 0 0 0-69.126 0 100.03 100.03 0 0 1-34.468 3.3432 100.73 100.73 0 0 1-34.352-3.2848 138.4 138.4 0 0 0-69.097 0 99.843 99.843 0 0 1-34.439 3.314 98.047 98.047 0 0 1-34.235-3.3432 137.81 137.81 0 0 0-68.177-0.13139 183.95 183.95 0 0 1-22.483 4.0147 102.35 102.35 0 0 1-21.475 0.33577zm-7.4893-45.958c-1.6497-0.26278-4.6863-0.90514-6.7448-1.4599l-3.752-0.97814v-19.052l2.7446 0.70076a133.57 133.57 0 0 0 42.527 1.4599c3.9563-0.59856 11.46-2.1315 16.672-3.4308a138.25 138.25 0 0 1 65.447-0.96354 134.08 134.08 0 0 0 68.995 1.5621c6.628-1.6205 16.059-3.4892 20.979-4.1461a172.44 172.44 0 0 1 42.921 1.4599 129.61 129.61 0 0 0 42.965 5.9856 92.426 92.426 0 0 0 28.483-2.7446 139.84 139.84 0 0 1 45.461-5.2702 111.16 111.16 0 0 1 27.315 3.606 211.53 211.53 0 0 0 21.972 4.1607 133.83 133.83 0 0 0 36.892-1.4599l5.241-1.3577v19.417l-5.7374 1.2993a136.19 136.19 0 0 1-23.227 1.2263 99.142 99.142 0 0 1-26.979-2.3358 123.62 123.62 0 0 0-41.476-5.4454 89.492 89.492 0 0 0-30.965 3.2556 143.63 143.63 0 0 1-71.448 0.74455 137.23 137.23 0 0 0-73.944 1.0073 95.084 95.084 0 0 1-28.979 2.7884 121.17 121.17 0 0 1-39.417-4.8761 145.58 145.58 0 0 0-44.965-2.6424 208.58 208.58 0 0 0-20.979 4.2191 96.354 96.354 0 0 1-29.475 3.4016c-9.6354 0.16059-18.847 0.0876-20.439-0.17519zm137.39-31.359c-3.5768-0.42338-11.212-1.9417-16.993-3.387a159.13 159.13 0 0 0-16.059-3.2264c-5.1243-0.55476-5.679-0.86134-6.7156-3.7228a107.3 107.3 0 0 0-5.5914-10.935l-4.4673-7.8251 3.6936 0.55476c5.5622 0.84675 30.994 3.3724 45.666 4.5257a1698 1698 0 0 0 227.82 1.5621l20.979-1.4599c7.6937-0.55476 16.059-1.2847 18.453-1.6497l4.4673-0.64236-4.4673 5.1973a107.39 107.39 0 0 0-11.197 16.22 17.971 17.971 0 0 1-6.7448-0.74455 140.63 140.63 0 0 0-58.951 2.1023 141.61 141.61 0 0 1-65.447 0.97814 137.23 137.23 0 0 0-32.483-5.1389 133.29 133.29 0 0 0-39.972 4.1607 145.99 145.99 0 0 1-51.958 3.46zm84.426-24.001c-18.687-0.37957-38.687-0.99273-44.469-1.3577l-25.986-1.6643c-22.935-1.4599-66.104-5.8396-68.747-6.9491a77.784 77.784 0 0 1-9.5478-6.5842l-7.2995-5.6206-39.067 0.35038-14.132-11.679c-7.7667-6.3944-14.132-11.869-14.132-12.176 0-0.74455 15.679-21.198 49.199-64.236 8.9054-11.431 37.622-48.454 66.63-85.915l33.403-43.126-0.39418-6.1754a52.031 52.031 0 0 1 2.511-24.118c1.4599-3.7374 2.5548-6.9637 2.5548-7.1681 0-0.20438-0.90514-0.37957-2.0001-0.37957s-2.0001-0.67156-2.0001-1.4599c0-0.78834 0.33578-1.4599 0.75915-1.4599 0.42338 0 9.7376 1.7665 20.731 3.9125s20.132 3.7666 20.307 3.5768c0.17519-0.18979 0.54016-5.6498 0.80295-12.161 0.59856-15.3 1.2409-20.322 2.5986-20.322 0.77375 0 0.91974 4.9199 0.49637 16.789l-0.61316 16.789 21.899 5.4162a112.41 112.41 0 0 1 21.592 6.4528c-0.18978 0.56936-1.7081 0.89054-3.4016 0.71535-2.438-0.24818-3.4892 0.29198-5.1973 2.7008-8.3652 11.752-8.4966 26.512-0.39417 46.717 2.1461 5.3578 3.0074 6.4528 5.606 7.1243 4.2337 1.0949 5.0659 3.6644 0.87594 2.7446-2.9198-0.64236-3.2118-0.39418-5.533 4.2045a50.133 50.133 0 0 0-5.2994 27.738c1.2847 22.847 12.818 50.644 21.417 51.651 3.4892 0.39417 2.6132 2.3942-0.90514 2.0731-2.4964-0.21899-2.7154 0.11679-3.8396 6.0002a210.4 210.4 0 0 0-1.0365 45.476 70.499 70.499 0 0 0 17.519 37.461l3.752 3.7666 32.118-0.55477 0.68615-8.993c0.36498-4.9345 1.3869-24.278 2.2337-42.965 0.84674-18.687 1.7519-36.979 2.0001-40.644 0.39418-6.0002 0.20439-6.9053-1.9125-9.0368a19.11 19.11 0 0 0-7.2995-3.6352 16.906 16.906 0 0 1-6.7156-3.1972c-1.3139-1.4599-3.0804-1.9271-7.2995-1.9271a20.76 20.76 0 0 1-16.512-7.4017 10.613 10.613 0 0 0-5.5768-3.9271c-5.241-1.0511-3.6644-2.9198 1.8249-2.1753l4.8761 0.67156-1.5767-6.3214a113.14 113.14 0 0 1-1.5913-24.818 95.609 95.609 0 0 1 2.2044-27.475 93.974 93.974 0 0 1 7.2995-21.081c1.1679-1.5475 0-2.4088-3.314-2.4088-1.8833 0-2.8322-0.52557-2.8322-1.5475s0.89054-1.4599 3.606-1.2555l3.606 0.29198-0.14599-10.993a97.901 97.901 0 0 1 5.4892-34.439 58.542 58.542 0 0 0 2.438-7.8251c0-0.58396-1.3139-1.3431-2.9198-1.6935-1.6059-0.35038-2.7446-1.1387-2.4526-1.9271s4.1899-0.54017 17.11 2.0585c9.139 1.8395 16.993 3.3432 17.431 3.3432a34.425 34.425 0 0 0 1.0657-10.468c0-5.8396-0.11679-10.497-0.24818-10.497s-3.4016 0.67155-7.2995 1.4599a45.257 45.257 0 0 1-27.475-1.4599 53.038 53.038 0 0 0-14.76-3.095h-5.7374l2.9198-1.5621a31.213 31.213 0 0 1 21.68-0.46717 25.14 25.14 0 0 0 15.971 0.64235c4.6279-0.81754 9.9857-1.9417 11.898-2.511a27.519 27.519 0 0 1 4.4965-1.0219 47.374 47.374 0 0 1 1.2847 14.701c0.16059 8.0879 0.46717 14.862 0.67156 15.081 0.20439 0.21898 12.862 3.1826 28.118 6.5842a163.51 163.51 0 0 1 28.162 7.4893c0.30658 0.91974-0.52557 1.1971-2.9198 0.94893-2.9198-0.30658-3.5622 0.073-5.5622 3.6352a57.768 57.768 0 0 0-5.5914 25.505 61.739 61.739 0 0 0 5.4162 24.088 22.147 22.147 0 0 0 5.4892 1.3577c2.9198 0.42337 4.3797 1.1387 4.3797 2.1315 0 0.99274-0.78835 1.3431-3.2556 0.90514-2.9198-0.52556-3.5184-0.18979-5.5914 2.9198a80.426 80.426 0 0 0-0.90514 72.134c2.1169 5.2994 2.7008 5.9418 5.7228 6.3944 5.4162 0.80295 4.9199 2.9198-0.67155 2.7738a34.366 34.366 0 0 0-10.803 2.1607 27.183 27.183 0 0 1-22.366-1.4599c-4.1461-1.8979-5.7082-2.2044-6.774-1.3139s-3.5476 0.91974-7.9711 0.46717c-5.0951-0.52557-7.1243-0.33578-8.92 0.84674-2.2045 1.4599-2.3358 2.1753-2.6278 14.599-0.26278 11.197-0.0876 13.008 1.2409 13.008 1.3285 0 75.039-24.41 97.814-32.366a39.563 39.563 0 0 1 7.7667-2.2482 22.774 22.774 0 0 1-2.1606 5.8396 70.543 70.543 0 0 0 8.4382 73.623l5.0367 6.044-3.2556 0.52556c-3.3432 0.54017-70.251 4.0147-99.828 5.1973l-16.657 0.51097-0.59856 2.9198c-1.4599 7.5477-2.6424 7.1097 16.891 6.409l17.519-0.64236 0.11679 2.219c0 1.2263 0.17519 2.9198 0.24819 3.7228 0.18978 2.0877 4.0585 2.3066 25.359 1.4599l18.234-0.70075v-2.2482c0-2.292 0.27738-2.3942 6.9345-2.3942 6.4236 0 6.9491 0.16058 7.2995 2.2482 0.35038 2.0877 0.64236 2.2482 12.059 2.2336 11.416-0.0146 11.679 0 11.679 2.2044a39.505 39.505 0 0 1-5.0075 13.796c-0.89054 0.55476-41.958 3.8687-60.44 4.8761-31.665 1.7519-86.032 2.4088-127.92 1.5767zm68.864-7.5477a3.314 3.314 0 0 0 1.5913-2.9928c0-2.3358-0.20439-2.3942-8.4966-2.3942s-8.4966 0-8.4966 2.4234c0 1.3285 0.55476 2.6424 1.2555 2.9198a46.717 46.717 0 0 0 14.146 0zm-64.367-3.4016v-2.9928h-7.8835c-7.2995 0-7.9273 0.17519-8.4382 2.1752a5.0659 5.0659 0 0 0 0 2.9928 25.067 25.067 0 0 0 8.4382 0.81755h7.9419zm33.665 0.24818c-0.36498-2.7154-0.46717-2.7446-8.5258-3.0512l-8.1609-0.30658v6.1024h17.052zm64.864 1.1679a10.307 10.307 0 0 1-0.61316-3.0366c0-1.1679-1.4599-1.4599-7.7375-1.1679-7.6207 0.27738-7.7521 0.33578-8.0587 3.0366l-0.30658 2.7446h8.6718c7.4893 0.0146 8.5696-0.18979 8.0441-1.5621zm33.023 0.21898a12.949 12.949 0 0 0-0.36497-2.9198l-0.54017-2.803-7.1097 0.49637-7.8689 0.55476c-0.78835 0-1.0511 4.3797-0.30658 5.1535a112.41 112.41 0 0 0 16.205-0.46717zm-164.17-1.1387c1.1679-3.0658-0.43797-4.4965-5.2118-4.6133-2.5548 0-6.1024-0.27738-7.8835-0.49637-3.0074-0.35037-3.2556-0.16059-3.2556 2.5548 0 2.7154 0.30658 2.9198 4.2483 3.314 9.5916 0.87594 11.533 0.74455 12.103-0.75915zm194.98-2.4964c0-2.4526-0.13139-2.4964-8.0003-2.4964h-8.0003l-0.64236 5.5768 8.3214-0.29198c8.1463-0.27739 8.3214-0.33578 8.3214-2.7738zm-226.29-0.87594c0-2.9198 0-2.9198-7.7375-3.3724-4.2629-0.27738-7.8251-0.45257-7.9127-0.37957a19.636 19.636 0 0 0-0.84675 2.803c-0.61315 2.4526-0.39417 2.7154 2.6716 3.0804 1.8395 0.21898 5.6936 0.48177 8.5842 0.56936 5.1535 0.16059 5.241 0.11679 5.241-2.7008zm-29.738-2.5694c0.54017-2.803-0.86134-3.314-10.219-3.7228-5.2702-0.23359-5.5038-0.1314-5.8396 2.3942-0.35037 3.0074 0.77375 3.4308 9.9274 3.6498 5.2264 0.13139 5.6644-0.0438 6.0878-2.3066zm117.65-6.3068a96.923 96.923 0 0 0-21.899-15.212 122.79 122.79 0 0 0-32.775-10.57l-6.2192-0.70075v15.022l4.2483 0.56937c2.3358 0.30658 8.1755 0.87594 12.979 1.2263l8.7594 0.67155v7.5331l13.241 0.96354c18.044 1.3139 21.738 1.4599 21.723 0.52556zm-204.05-2.2337a34.789 34.789 0 0 0 11.679-0.84674 91.492 91.492 0 0 0-16.059-6.701l-6.19-2.2628-2.6278 4.8177c-3.0366 5.5914-3.2118 6.482-1.0511 5.6498a104.66 104.66 0 0 1 14.19-0.59856zm-15.344-5.6498a21.3 21.3 0 0 0 2.3358-4.9199c-0.58396-0.58396-25.008-6.482-25.359-6.1316a159.99 159.99 0 0 0 19.636 15.65 14.103 14.103 0 0 0 3.3578-4.5841zm140.92-0.1022 0.62776-3.752 13.898 0.67156v-7.5769c0-5.679-0.33578-7.5769-1.3431-7.5769a58.513 58.513 0 0 0-17.825 7.1097c-5.533 3.5476-13.241 11.84-12.088 12.979a20.643 20.643 0 0 0 6.774 1.1387c3.2994 0.20438 6.7448 0.45257 7.6499 0.55476 1.2117 0.13139 1.8541-0.87594 2.3066-3.5622zm-22.439 1.3285c0-0.21899-1.4599-4.3797-3.3724-9.2412a123.65 123.65 0 0 1-4.0585-84.032c2.5694-6.847 2.4818-8.2339-0.62775-8.2339-1.0657 0-1.9417-0.45257-1.9417-0.99273 0-0.54017 1.3577-0.99274 2.9928-0.99274a8.8908 8.8908 0 0 0 2.9928-0.24818c0-0.14599-1.4599-4.2921-3.4016-9.2266l-3.387-8.9784-6.6572 13.752c-18.395 37.957-23.169 72.995-13.665 100.03a47.053 47.053 0 0 0 2.5256 6.336 158.56 158.56 0 0 0 28.585 1.8541zm-36.089-4.3797a49.184 49.184 0 0 0-44.381-8.2339c-8.3798 2.3066-12.132 3.9271-9.4602 4.0877 0.81755 0 11.84 1.3723 24.483 2.9198 12.643 1.5475 24.95 2.9198 27.359 2.9198l4.3797 0.1022zm-67.01-9.7668a36.702 36.702 0 0 0-22.468-9.3434c-6.1754 0-20.117 3.5476-18.862 4.8031 0.77375 0.77375 38.571 7.8981 42.834 8.0587 2.8176 0.073 2.803 0.0438-1.5037-3.5184zm52.878-57.622c21.3-28.468 38.629-52.308 38.541-52.965-0.0876-0.65696-0.70076-3.8979-1.3577-7.1973a79.185 79.185 0 0 1 13.49-54.863l3.2994-3.606-2.3942-0.59856c-3.5184-0.87594-2.9198-2.7446 0.61316-2.0293a8.7594 8.7594 0 0 0 2.9928 0.33578c0-0.61316-5.7228-13.752-6.19-14.219a208.77 208.77 0 0 0-26.57 33.782c-37.125 53.71-66.163 118.63-67.813 151.61l-0.48177 9.4894 3.5768-3.9855c1.9709-2.2045 20.993-27.3 42.337-55.768zm134.12-19.183a73.112 73.112 0 0 0-18.497-12.278 138.5 138.5 0 0 0-23.504-9.1828 17.519 17.519 0 0 0-0.93434 7.9127c0 7.8397 0 7.9127 2.7446 8.4674 1.4599 0.30658 9.9419 1.6789 18.745 3.0366l18.482 2.9198 3.3724 0.54016c0.43797-0.0146 0.27738-0.64236-0.42338-1.4745zm-45.155-14.599-0.29198-7.4017-5.8396 0.30658a81.915 81.915 0 0 0-12.979 2.1461c-8.5696 2.1898-19.694 7.0513-17.782 7.7667a315.75 315.75 0 0 0 36.395 5.2411 23.796 23.796 0 0 0 0.49637-8.0587zm162.05 5.6644a166.11 166.11 0 0 0-28.483-19.68 47.053 47.053 0 0 0-17.884-5.8396 50.104 50.104 0 0 0-0.78835 8.92l-0.32118 8.4382 16.993 3.2556c9.3434 1.7957 18.979 3.6644 21.475 4.1753 5.1243 1.0365 9.0076 1.3431 9.0076 0.70076zm-51.184-18.307 0.29199-8.2339h-9.0952a73.36 73.36 0 0 0-13.475 1.1095c-4.6425 1.1679-12.833 7.2995-12.219 9.2266a174.87 174.87 0 0 0 32.191 6.3214c1.7957-0.14599 2.0293-0.99274 2.292-8.409zm-80.295-64.031a74.455 74.455 0 0 0-22.278-13.606c-2.2628-0.68615-2.292-0.58396-2.0001 6.0732l0.29198 6.774 14.497 3.6352a114.38 114.38 0 0 0 14.993 3.2118 26.147 26.147 0 0 0-5.5038-6.0878zm-27.315-8.2776c0.24819-4.3797 0-6.263-0.99273-6.628a70.411 70.411 0 0 0-23.49 2.7592 18.526 18.526 0 0 0-6.3652 2.6278c0.51096 0.51097 27.344 7.1827 29.344 7.2995 0.83215 0 1.3869-2.2628 1.6059-6.1024zm153.7 4.3797a53.827 53.827 0 0 0-8.2339-6.9345 71.433 71.433 0 0 0-28.57-13.971l-5.2264-0.61316 0.58396 14.599 18.482 3.6936c19.577 3.898 22.993 4.3797 22.964 3.168zm-45.943-13.738a46.469 46.469 0 0 1 0.24818-6.2484c0.99273-2.9198-17.767 1.2847-24.234 5.5038-2.4526 1.5913-2.2774 1.6789 8.993 3.8395 16.293 3.0512 15.095 3.314 15.095-3.1388zm-218.12-108.35c-2.9198-3.168-1.4599-6.5404 3.6352-8.628a364.64 364.64 0 0 1 62.206-17.387 425.66 425.66 0 0 1 211.83 15.11c8.6864 3.2556 11.606 5.6352 10.774 8.7594-1.1387 4.3797-3.5768 4.3797-17.519-0.55476a357.27 357.27 0 0 0-72.178-16.876 411.97 411.97 0 0 0-179.86 16.059c-17.183 5.9856-16.745 5.9126-18.891 3.5184zm-9.9857-26.395a4.2629 4.2629 0 0 1-1.4599-4.2483c0.39418-3.5622 5.1535-6.1608 22.818-12.468a380.61 380.61 0 0 1 131.61-20.964 391.94 391.94 0 0 1 100.92 11.431 217.07 217.07 0 0 1 54.016 19.329 4.2629 4.2629 0 0 1-1.1387 6.7594c-2.2336 1.4599-2.9198 1.3431-11.241-2.1169a367.76 367.76 0 0 0-112.28-25.037 592.91 592.91 0 0 0-66.44 0.58396 368.92 368.92 0 0 0-108.19 25.636c-6.3944 2.803-6.3068 2.803-8.628 1.1095zm46.848-2.0585a5.0367 5.0367 0 0 1 4.1461-8.1171 5.3724 5.3724 0 0 1 3.7812 1.4599 5.1681 5.1681 0 0 1 1.6351 4.1461 4.4527 4.4527 0 0 1-1.7081 3.606 6.117 6.117 0 0 1-3.9417 1.2117 4.2775 4.2775 0 0 1-3.9125-2.3066zm204.55 1.1679a6.263 6.263 0 0 1-1.1971-3.7958 6.7302 6.7302 0 0 1 1.1825-3.7082 5.2411 5.2411 0 0 1 4.1169-1.9417 5.5038 5.5038 0 0 1 3.3724 1.2555 3.095 3.095 0 0 1 1.4599 1.9125 5.8396 5.8396 0 0 1-0.70075 5.8396 5.2849 5.2849 0 0 1-3.8104 1.9417 7.4455 7.4455 0 0 1-4.3797-1.5621zm-169.86-6.9929a6.5258 6.5258 0 0 1-1.3139-5.4746 5.0513 5.0513 0 0 1 1.7665-2.8176 4.9491 4.9491 0 0 1 2.9928-1.0511 6.3068 6.3068 0 0 1 3.1972 0.72996 5.679 5.679 0 0 1 1.1095 8.3652 6.5112 6.5112 0 0 1-7.7667 0.24819zm135.89 0a5.8396 5.8396 0 0 1 1.0219-8.3506 5.2703 5.2703 0 0 1 6.774 0.43797 4.9637 4.9637 0 0 1 0.42337 7.5477 7.0221 7.0221 0 0 1-8.2339 0.36498zm-101.51-4.0439a4.8615 4.8615 0 0 1-1.5621-4.3797c1.0803-2.9198 1.6643-4.2775 5.533-4.2775a5.0221 5.0221 0 0 1 3.0804 1.2263c0.99274 0.77374 1.4599 1.5621 1.4599 3.9563a4.9783 4.9783 0 0 1-1.3577 3.3432 4.8761 4.8761 0 0 1-3.752 1.4599 4.7301 4.7301 0 0 1-3.3724-1.2555zm67.535 0a6.0148 6.0148 0 0 1 1.0219-8.2338 5.5622 5.5622 0 0 1 3.7228-1.1533 5.6498 5.6498 0 0 1 3.533 2.3066 4.5841 4.5841 0 0 1 1.2847 3.0512 5.0659 5.0659 0 0 1-1.3285 3.6498 7.0221 7.0221 0 0 1-8.2192 0.37957zm-34.322-2.2336a5.7082 5.7082 0 0 1 2.5694-8.1463 5.3286 5.3286 0 0 1 6.1316 8.1171 4.9929 4.9929 0 0 1-8.7594 0zm-132.24-6.7156c-0.81755-2.1753-10.497-51.097-10.497-52.965 0-1.3577 2.2191-2.4672 9.6646-4.7885 5.314-1.6643 11.051-3.2702 12.745-3.5768l3.0804-0.56936 21.169 51.564-3.9855 1.2263-5.679 1.7665c-1.4599 0.43797-2.4818-1.5621-5.971-10.964-4.5841-12.38-4.6279-12.424-11.037-10.088-4.0439 1.4599-4.0293 1.0803-0.45257 15.563a34.483 34.483 0 0 1 1.6497 10.103 16.672 16.672 0 0 1-3.6936 1.6497c-1.6497 0.56936-3.7812 1.3431-4.7301 1.7373-0.94894 0.39418-1.9563 0.23359-2.2774-0.59856zm7.8689-40.337a9.139 9.139 0 0 0 3.6206-2.1169 49.797 49.797 0 0 0-1.7373-5.4746c-1.8249-5.1535-1.7373-5.1243-7.9711-2.7884-2.1461 0.80295-2.1752 0.96354-0.75915 5.6206a46.542 46.542 0 0 1 1.4599 5.533c0 1.1533 1.3285 0.96354 5.3724-0.71535zm258.67 39.826c-2.7154-0.96354-4.2337-2.1023-4.2337-3.168a105.24 105.24 0 0 1 2.4818-11.154c1.3577-5.2265 2.4672-10.015 2.4818-10.643 0-1.4599-9.0952-4.6717-10.015-3.606-0.35038 0.40877-2.365 5.4746-4.4673 11.241-2.1023 5.7666-3.9272 10.643-4.0877 10.832a38.22 38.22 0 0 1-11.402-2.7008c0-0.59856 15.767-38.439 19.534-46.848 1.2847-2.9198 2.9198-5.2411 3.6498-5.2411a148.41 148.41 0 0 1 23.782 7.9127c0 0.75915-9.5916 49.009-10.497 52.805-0.61316 2.6132-1.4161 2.6716-7.2411 0.62776zm5.0659-41.198c0.30658-1.5913 0.86134-4.0001 1.1971-5.3724 0.54017-2.1461 0.16059-2.657-2.5986-3.606-4.5403-1.5913-4.7301-1.4599-6.2922 2.2044-2.9198 7.0367-2.9198 7.2995 0.59856 8.409 5.4016 1.8395 6.4674 1.5475 7.0951-1.5767zm-234.05 25.84c-1.4599-4.7739-0.96354-5.5038 4.0731-6.4236l3.6644-0.67155 0.89054 4.3797c0.97814 4.7593 0.67156 5.2118-4.3067 6.2776-2.9198 0.56936-3.1388 0.35038-4.3213-3.5622zm193.01 3.3724c-2.365-0.45257-2.9198-3.2264-1.6059-8.0879 0.52557-1.9709 1.0511-2.2045 3.7374-1.6497 4.5549 0.96353 5.0659 1.8541 3.3724 6.0732-1.6935 4.2191-2.0293 4.3797-5.5038 3.6498zm-13.139-2.7446c-2.9198-0.56936-5.3578-1.4599-5.3286-2.0293s0.32118-2.73 0.67155-4.8469l0.61316-3.8542 4.5987 0.68616c6.9783 1.0511 7.2995 1.2993 6.6426 4.8615-1.2263 6.2922-1.2847 6.3214-7.1973 5.1826zm-167-3.5914a8.1901 8.1901 0 0 1-0.30658-4.9929 13.708 13.708 0 0 1 5.2848-1.1241l4.4673-0.33578 0.68615 3.9855a9.2996 9.2996 0 0 1 0 4.6425 16.059 16.059 0 0 1-4.7739 1.3431l-4.1899 0.68615-1.1387-4.2045zm14.599 0.90514a44.25 44.25 0 0 1-0.93434-5.0075c-0.46717-3.4016-0.30658-3.679 2.5402-4.2483a33.928 33.928 0 0 1 3.9125-0.61315c1.0657 0 1.1825 9.9857 0.13139 10.015a19.723 19.723 0 0 0-2.9198 0.61316c-1.4599 0.37958-2.3942 0.1022-2.657-0.77375zm138.82 0.13139c-2.8322-0.54016-2.9198-0.77375-2.657-5.0659a24.03 24.03 0 0 1 0.58396-4.7301 11.212 11.212 0 0 1 3.752 0.33578l3.46 0.64236-0.84674 4.5841a29.198 29.198 0 0 1-1.1095 4.7301 15.957 15.957 0 0 1-3.1826-0.49637zm-128.47-27.344v-27.49l4.2629-0.64236c4.9637-0.74455 25.067-2.2336 25.534-1.9125s9.1244 49.564 9.1536 52.133c0 2.0877-0.40878 2.2482-5.8396 2.2482-6.9053 0-6.3944 0.81755-8.1755-13.285l-1.2263-9.7814-11.124 0.58396 0.36498 12.249c0.36497 11.679 0.27738 12.249-1.6059 12.249-1.0949 0-4.0731 0.27738-6.628 0.64236l-4.6425 0.64235zm20.439-15.928c-0.84674-6.409-1.3431-6.9783-5.606-6.5696-3.0658 0.29198-3.4016 0.64236-3.606 3.8104-0.46717 6.9053 0.26278 8.0003 5.3432 8.0003h4.7155zm91.697 42.512c-2.1752-0.42337-2.2482-0.78834-2.2482-12.249 0-13.139 0-13.022-6.9637-13.022-4.2921 0-3.8687-0.99274-6.1024 14.73l-1.1679 8.2339h-6.9491c-6.1316 0-6.8907-0.20439-6.4528-1.7519 0.27738-0.96353 2.657-13.285 5.2994-27.402l4.8031-25.651 7.0221 0.49637a150.37 150.37 0 0 1 21.096 2.6132c0.21899 0.21898 0.70076 12.614 1.0511 27.548l0.74455 27.213-3.8979-0.13139a50.367 50.367 0 0 1-6.1608-0.56936zm-0.33577-42.95-0.30658-5.7374-9.1974-0.61315-0.61315 5.1826a18.979 18.979 0 0 0-0.0876 6.044 11.343 11.343 0 0 0 5.5184 0.84675h4.9929zm-69.141 35.972c-1.0073-6.117-0.93434-6.2484 3.3578-6.2484h3.9855v10h-3.3724c-3.1096 0-3.4162-0.29198-3.9855-3.752zm12.351-1.2555v-5.0075h12v10h-12zm16.993 0v-5.0075h4.1169c4.0877 0 4.1169 0 3.4892 3.1242a32.906 32.906 0 0 0-0.62776 5.0075c0 1.4599-0.74455 1.8687-3.4892 1.8687h-3.4892zm-114.76-1.4599a19.928 19.928 0 0 1-1.1533-4.1461 35.154 35.154 0 0 1 15.986-3.7228 11.811 11.811 0 0 1 1.4599 4.0439c0.72996 3.5038 1.4599 3.1096-11.051 6.044-4.0293 0.93434-4.1315 0.90514-5.2556-2.2045zm196.9 0.67156c-5.5622-1.4599-6.2484-1.8249-5.7666-3.6352a18.687 18.687 0 0 0 0.56936-3.8104c0-2.2336 2.4526-2.2482 11.679-0.10219l7.1827 1.6789-1.9563 3.825c-2.1898 4.2921-2.511 4.3505-11.708 2.0439zm-175.38-5.8396a10.103 10.103 0 0 1-0.14599-4.1461 99.361 99.361 0 0 1 15.709-3.1096c1.3869 0 1.7519 0.80294 1.7519 3.9563a10.103 10.103 0 0 1-0.40877 3.9855c-0.21899 0-3.9271 0.67156-8.2339 1.4599l-7.9565 1.4599a28.176 28.176 0 0 1-0.74455-3.6644zm155.22 2.0731-7.7375-1.3139a18.249 18.249 0 0 1-0.24818-4.1899v-4.1315l3.752 0.58396c2.0585 0.32118 6.0732 0.87594 8.92 1.2409l5.1681 0.67155-0.55477 3.6352a12.088 12.088 0 0 1-1.1679 4.2045 28.745 28.745 0 0 1-8.1171-0.68615zm-64.236-5.1097-5.7374-0.36498v-7.8835h9.5624c8.628 0 9.5186 0.17519 9.0952 1.7519-0.26278 0.96353-0.75915 2.9198-1.0803 4.4965-0.49637 2.2336-1.1095 2.7154-3.3432 2.5694-1.4745-0.17519-5.3286-0.42337-8.4966-0.62776zm-29.724-2.6424a13.781 13.781 0 0 0-0.61316-4.0293c-0.52557-1.3723 0.64235-1.5913 8.8324-1.5913h9.4456l-0.21899 3.752-0.21898 3.752-8.6134 0.29198c-8.555 0.23358-8.6134 0.14599-8.6134-2.2336zm-142.82-24.366a101.55 101.55 0 0 1-2.7884-9.9127 16.891 16.891 0 0 1 2.9198-0.87594c2.4818-0.61316 2.7446-0.32118 4.3797 4.6717 0.96353 2.9198 1.8687 5.4746 2.0293 5.6644a39.067 39.067 0 0 0 14.438-5.46 13.694 13.694 0 0 0-0.84675-3.5476c-2.292-6.19-2.2336-7.5769 0.26278-8.2047 1.3139-0.33577 3.0658-0.86134 3.898-1.1679 1.1241-0.42337 1.8979 0.81755 3.1242 4.9929 1.0803 3.6936 2.1461 5.5622 3.1972 5.5622a80.105 80.105 0 0 0 13.139-3.5184 22.249 22.249 0 0 0-1.2409-5.533 22.307 22.307 0 0 1-1.2409-5.5914 14.146 14.146 0 0 1 3.2848-0.90514l2.9198-0.59856 2.7446 9.1828a70.835 70.835 0 0 1 2.4526 9.4164c-0.16059 0.13139-5.6936 1.6935-12.292 3.4892-6.5988 1.7957-17.592 5.241-24.439 7.6499s-12.57 4.3797-12.687 4.3797-1.5767-4.3505-3.2556-9.6938zm309.67 4.6571c-7.4163-2.6132-18.205-6.0002-23.986-7.5185-5.7812-1.5183-10.584-2.8176-10.686-2.9198-0.10219-0.1022 1.0511-4.1461 2.5986-9.066 2.9198-9.1974 4.3797-10.876 8.0587-8.5258 1.2701 0.81755 1.2409 1.6205-0.21898 6.19a31.797 31.797 0 0 0-1.4599 5.387c0.11679 0 3.4746 1.0511 7.4455 2.1752l7.2995 2.0585 1.7081-5.6206c0.93434-3.095 1.7665-5.7228 1.8249-5.8396a15.767 15.767 0 0 1 3.7958 0.78835c4.1753 1.1533 4.3797 1.7227 2.0877 8.2922a16.57 16.57 0 0 0-1.2555 5.0659 55.243 55.243 0 0 0 14.876 3.8249 26.862 26.862 0 0 0 1.8979-5.4746c1.2847-4.7593 2.8322-5.8396 5.8396-3.8688 1.0803 0.68616 0.78835 2.6278-1.4599 10.219a33.49 33.49 0 0 1-3.825 9.4894 129.46 129.46 0 0 1-14.526-4.6571zm-217.2-21.183c-1.8395-15.183-1.8103-15.65 0.93433-16.336a5.9564 5.9564 0 0 1 2.9198-0.27738 68.688 68.688 0 0 1 1.4599 10.614c0 1.4599 4.1461 1.6059 11.475 0.61315l4.7009-0.64235-0.67155-6.3506-0.67156-6.3506h7.9711l0.67155 6.0002 0.67156 6.0002h4.8177a48.819 48.819 0 0 0 7.6937-0.58396c2.8322-0.56936 2.9198-0.65695 2.5402-6.5696l-0.33578-5.9856 3.2556 0.32118c3.5914 0.35038 3.3432-0.39417 4.2629 12.424l0.51096 7.1097-13.665 0.70075c-7.5185 0.37958-18.614 1.3431-24.658 2.1169s-11.533 1.4599-12.176 1.4599c-0.64235 0-1.4307-1.9271-1.7081-4.2629zm127.8 2.7154c-5.5038-0.67156-15.957-1.5767-23.227-1.9855l-13.241-0.75915v-3.7082c0-2.0439 0.29198-6.482 0.64236-9.8544 0.64236-6.1024 0.67156-6.1462 3.8104-6.1462h3.168l-0.84674 11.854 3.387 0.64236a37.344 37.344 0 0 0 7.8543 0.30658l4.4673-0.32118 0.61316-11.475h7.8835v12.716l4.6425 0.64235a72.075 72.075 0 0 0 7.9419 0.64236h3.2994l0.30658-5.7374c0.30658-5.8396 1.5913-7.2995 4.6425-5.387 1.0657 0.68615 1.1971 2.9198 0.62775 10.497-0.83214 11.139 1.0219 10.219-15.971 8.0879z" fill="#b3a369" stroke-width="14.599"/></svg>
