<?xml version="1.0" encoding="UTF-8"?>
<svg width="130.77mm" height="200mm" version="1.1" viewBox="0 0 130.77 200" xmlns="http://www.w3.org/2000/svg">
 <g transform="translate(-204.91 -51.874)">
  <g fill="#fff">
   <path d="m270.31 54.611c1.7585 0 4.0958 0.03772 5.8978 0.11317h0.0548v8.7312l3.6158 0.2527c4.9939 0.35111 8.9385 0.99197 13.811 1.9089l3.6354 0.68523 1.9849-8.2615 0.0145-0.05788 0.0553 0.01447c3.3748 0.78928 7.7933 1.7236 11.043 2.774l0.0522 0.01447-6.2968 27.256-0.0145 0.05478-0.0579-0.01137c-4.7212-1.1781-10.111-2.1098-14.969-2.7714-3.0817-0.42076-6.1921-0.73965-9.2506-0.94568-3.2064-0.22053-6.4306-0.33073-9.5762-0.33073-3.0352 0-6.1226 0.10137-9.1839 0.29869-3.1803 0.20893-6.4304 0.53975-9.663 0.98082-4.8576 0.6616-10.244 1.5957-14.968 2.7709l-0.0553 0.01499-6.3025-27.259-0.0119-0.05219 0.0522-0.01447c3.2558-1.0533 7.6748-1.9876 11.044-2.774l0.0548-0.01447 1.9761 8.215 3.6246-0.66766c5.0433-0.92856 9.1267-1.5667 14.219-1.8888l3.6416-0.23203v-8.7085h0.0553c1.6685-0.06384 3.8746-0.0956 5.517-0.0956z"/>
   <path d="m252.1 132.34c1.0127-1.1317 4.6254-3.0178 17.419-3.0178 0.14799 0 0.29598 0 0.44687 3e-3h0.3366 0.33371c0.15089-3e-3 0.29888-3e-3 0.44687-3e-3 12.794 0 16.407 1.8862 17.422 3.0178 0.44107 0.4962 0.41495 0.85892 0.40915 0.88504v22.114l3e-3 0.72254-0.1596-0.0203c-0.0551-6e-3 -5.7774-0.68772-18.09-0.68772-0.12478 0-0.24375 3e-3 -0.36563 3e-3 -0.12477 0-0.24374-3e-3 -0.36852-3e-3 -12.312 0-18.032 0.68192-18.09 0.68772l-0.15669 0.0203v-22.837c-3e-3 -0.0261-0.0319-0.38884 0.41205-0.88504"/>
   <path d="m293.8 161.05v1.7614l-0.18861-0.0696c-0.0261-9e-3 -2.4317-0.84732-4.7473 1.1056-2.2924 1.9297-1.4016 8.6357-1.3928 8.7053l0.0261 0.17991-0.18282-0.0203c-0.0696-9e-3 -6.999-0.82991-17.016-0.76027-10.014-0.0696-16.943 0.75156-17.013 0.76027l-0.18281 0.0203 0.0261-0.17991c9e-3 -0.0696 0.89954-6.7756-1.3928-8.7053-2.3185-1.9529-4.7212-1.1143-4.7473-1.1056l-0.18861 0.0696v-1.7614l0.11607-0.0203c0.087-0.0145 8.8881-1.5031 23.049-1.3812 0.11317 3e-3 0.22343 3e-3 0.3337 6e-3 0.11317-3e-3 0.22344-3e-3 0.33661-6e-3 14.161-0.12188 22.959 1.3667 23.049 1.3812z"/>
   <path d="m270.3 191.54h0.39754c17.776 0 27.892 1.9848 28.315 2.069l-0.0348 0.28147c-0.0406-3e-3 -3.9696-0.14799-6.648 3.2645-2.687 3.4212-1.6134 10.844-1.5989 10.928l1.4828 18.568c-6.2562 7.3066-13.499 14.233-21.914 20.478-8.4238-6.2504-15.658-13.189-21.911-20.501l1.4799-18.545c0.0145-0.0842 1.0882-7.5069-1.5989-10.928-2.6783-3.4125-6.6073-3.2674-6.648-3.2645l-0.0348-0.28147c0.42366-0.0841 10.539-2.069 28.315-2.069h0.39754"/>
   <path d="m270.44 96.618c-0.0435 0-0.0841 0.0029-0.12768 0.0029 0.0435 0 0.0842-0.0029 0.12768-0.0029"/>
   <path d="m269.93 176.53c0.12478 0 0.24375 3e-3 0.36562 3e-3 0.12188 0 0.24375-3e-3 0.36562-3e-3 21.955-0.18571 28.313 2.4897 28.376 2.5187l0.0842 0.0348-0.0348 9.9328-0.1596-0.0232c-0.11317-0.0174-11.305-1.6917-28.234-1.8774-0.13348-3e-3 -0.26406-3e-3 -0.39754-6e-3 -0.13058 3e-3 -0.26406 3e-3 -0.39754 6e-3 -16.926 0.18571-28.121 1.86-28.231 1.8774l-0.1625 0.0232-0.0348-9.9328 0.0871-0.0348c0.0609-0.029 6.4187-2.7044 28.373-2.5187"/>
   <path d="m289.67 125.28 0.0464 0.0319 0.40334 2.0835-1.8571 1.4538 0.12478-0.42366c0-3e-3 0.0493-0.22633-0.19732-0.55714-1.892-2.5245-12.759-2.8727-17.889-2.8931-5.1303 0.0203-15.995 0.36853-17.889 2.8931-0.24665 0.33081-0.19732 0.55424-0.19732 0.55714l0.12478 0.42366-1.8571-1.4538 0.40334-2.0835 0.0464-0.0319 17.985-12.8v-1.3493l-1.7556-1.0011v-3.6939l2.9163-0.9866v-7.0107h0.44977v7.0107l2.9134 0.9866v3.6939l-1.7527 1.0011v1.3493z"/>
  </g>
  <path d="m234.27 92.783-8.0292-33.399c5.6178-1.9993 11.5-3.6272 17.48-4.843l2.0022 8.331 0.0522-0.0087c5.1913-0.95758 10.481-1.6105 15.73-1.9471l0.0551-0.0029v-8.7488c2.9511-0.19152 5.937-0.29018 8.8736-0.29018 3.0381 0 6.1517 0.10737 9.2537 0.3192v8.7836l0.0551 0.0058c5.1419 0.35982 10.293 1.0214 15.307 1.9645l0.0551 0.0087 0.0116-0.05223 2.0138-8.3658c5.9834 1.2158 11.862 2.8437 17.48 4.8401l-8.0321 33.405h28.553s10.957 105.19-64.825 159.08c0 0-6e-3 0.0116-9e-3 6e-3 -6e-3 6e-3 -0.0116-6e-3 -0.0116-6e-3 -75.782-53.889-64.825-159.08-64.825-159.08zm75.8-31.458-0.0522-0.01451c-3.25-1.0504-6.6102-1.9848-9.985-2.7741l-0.0551-0.01451-0.0145 0.05803-1.9848 8.2613-3.6359-0.68482c-4.8721-0.91696-9.8747-1.5582-14.869-1.9094l-3.6156-0.25245v-8.7314h-0.0551c-1.802-0.07545-3.6098-0.11317-5.3683-0.11317-1.6424 0-3.3196 0.03192-4.9881 0.09576h-0.0551v8.7082l-3.6417 0.23214c-5.0926 0.3221-10.235 0.96048-15.278 1.889l-3.6243 0.66741-1.9761-8.2149-0.0551 0.01451c-3.369 0.78638-6.7292 1.7207-9.985 2.7741l-0.0522 0.01451 0.0116 0.05223 6.3026 26.2 0.0551-0.01451c4.7241-1.1752 9.5816-2.1096 14.439-2.7712 3.2326-0.44107 6.4825-0.77187 9.6629-0.9808 3.0614-0.19732 6.1488-0.29888 9.1841-0.29888 3.1455 0 6.3694 0.11027 9.5758 0.3308 3.0585 0.20603 6.1692 0.52522 9.2508 0.94598 4.8576 0.6616 9.718 1.5931 14.439 2.7712l0.058 0.01161 0.0145-0.05513zm-68.45 132.57c0.0377-3e-3 3.9667-0.14508 6.6479 3.2645 2.687 3.4212 1.6105 10.844 1.5989 10.928l-1.4828 18.545c6.2562 7.3124 13.49 14.251 21.914 20.504 8.4151-6.2475 15.658-13.174 21.914-20.481l-1.4857-18.568c-0.0116-0.0842-1.0882-7.5069 1.5989-10.928 2.6812-3.4096 6.6102-3.2674 6.648-3.2645l0.0348-0.28147c-0.42076-0.0841-10.536-2.069-28.313-2.069h-0.39754-0.40044c-17.776 0-27.892 1.9848-28.313 2.069zm-0.11608-4.8692 0.1625-0.0261c0.11027-0.0174 11.305-1.6917 28.234-1.8774 0.13348-3e-3 0.26406-3e-3 0.39754-3e-3 0.13058 0 0.26406 0 0.39464 3e-3 16.929 0.18572 28.124 1.86 28.234 1.8774l0.1625 0.0261 0.0319-9.9327-0.0842-0.0377c-0.0609-0.029-6.4187-2.7044-28.373-2.5187-0.12477 3e-3 -0.24374 3e-3 -0.36562 3e-3 -0.12477 0-0.24375 0-0.36852-3e-3 -21.955-0.18571-28.313 2.4897-28.373 2.5187l-0.0841 0.0377zm31.934-78.896v-3.694l-2.9163-0.9895v-7.0078h-0.44978v7.0078l-2.9163 0.9895v3.694l1.7556 1.0011v1.3493l-17.982 12.8-0.0464 0.0319-0.40335 2.0835 1.8571 1.4538-0.12477-0.42366c0-3e-3 -0.0522-0.22634 0.19732-0.55714 1.892-2.5274 12.759-2.8727 17.889-2.8931 5.1274 0.0203 15.995 0.36563 17.886 2.8931 0.24956 0.3308 0.20023 0.55424 0.19732 0.55714l-0.12187 0.42366 1.8542-1.4538-0.40335-2.0835-0.0464-0.0319-17.982-12.8v-1.3493zm-3.0033-13.508h-0.12478 0.12478m-18.754 59.443 0.15959-0.0174c0.058-9e-3 5.7774-0.68772 18.09-0.68772h0.36852 0.36562c12.312 0 18.034 0.67901 18.09 0.68772l0.1596 0.0174-3e-3 -0.72254v-22.114c6e-3 -0.0232 0.0319-0.38883-0.41205-0.88503-1.0127-1.1317-4.6254-3.0149-17.419-3.0149h-0.44687c-0.11317 0-0.22054 3e-3 -0.33371 3e-3s-0.22343-3e-3 -0.3366-3e-3h-0.44687c-12.794 0-16.407 1.8832-17.419 3.0149-0.44397 0.4962-0.41495 0.86182-0.41205 0.88503v22.114zm18.951 3.5866c-0.11317 0-0.22344 3e-3 -0.33371 3e-3 -0.11317 0-0.22343-3e-3 -0.3366-3e-3 -14.161-0.12478-22.959 1.3638-23.049 1.3783l-0.11608 0.0203v1.7643l0.18862-0.0696c0.0261-9e-3 2.4317-0.84731 4.7473 1.1027 2.2924 1.9326 1.4016 8.6386 1.3928 8.7053l-0.0261 0.18281 0.18281-0.0232c0.0696-9e-3 6.9991-0.82701 17.016-0.75736 10.014-0.0697 16.943 0.74865 17.013 0.75736l0.18281 0.0232-0.0261-0.18281c-9e-3 -0.0667-0.89955-6.7727 1.3928-8.7053 2.3185-1.95 4.7212-1.1114 4.7473-1.1027l0.18862 0.0696v-1.7643l-0.11607-0.0203c-0.0871-0.0145-8.8881-1.5031-23.049-1.3783m35.709-66.865c-5.7078-1.5989-11.624-2.8234-17.596-3.6388-2.9801-0.40625-6.0067-0.71674-8.9955-0.91986-3.1223-0.21473-6.2562-0.3221-9.3147-0.3221-2.9656 0-5.9718 0.09866-8.9345 0.29308-3.0875 0.20312-6.2475 0.52232-9.393 0.95178-5.9718 0.8154-11.883 2.0399-17.579 3.6359z" fill="#0087b2"/>
 </g>
</svg>
