<?xml version="1.0" encoding="UTF-8"?>
<!-- Created with Inkscape (http://www.inkscape.org/) -->
<svg width="150.92mm" height="200mm" version="1.1" viewBox="0 0 150.92 200" xmlns="http://www.w3.org/2000/svg">
 <g>
  <path d="m123.91 25.193v-3.386h6.0063v-17.088h-26.267l0.0395 8.7293-6.6377-0.0395v-13.41h-42.739l0.0316 13.41h-6.4325v-8.6898h-26.472v17.088h5.5722v3.386h-27.017v124.69h0.0079c0.0079 27.569 22.565 50.118 50.134 50.118h50.647c27.569 0 50.118-22.549 50.134-50.118v-124.69z" fill="#ffcd00"/>
  <g fill="#e4032c">
   <path d="m27.009 25.108h96.898v-3.2518h-96.898z"/>
   <path d="m42.842 29.421v6.8666l9.4949-6.8666z"/>
   <path d="m84.375 69.9-0.17363-6.5114-8.0979-5.809 1.0576 22.352z"/>
   <path d="m69.942 89.265-0.17363-31.515-9.1555 8.453 1.5785 30.095z"/>
   <path d="m84.026 58.282-0.34727-24.641-8.453 6.8666 0.52881 13.725z"/>
   <path d="m75.052 29.421v5.4538l8.0979-5.2802v-0.17363z"/>
   <path d="m53.747 102.99 0.52091-38.019-10.9-8.974 0.70245 53.331z"/>
   <path d="m54.46 32.582-11.271 8.974v8.2794l11.089 8.974z"/>
   <path d="m139.49 124.46-2.9124 3.6938-3.6148-1.1997c-1.1208 0.90765-2.3283 1.7522-3.7174 2.3836-0.46567 0.21311-0.94712 0.3157-1.4049 0.47356l-0.88398 3.8279-4.6646 0.5367-1.7443-3.4886c-1.91-0.19732-3.749-0.72613-5.4854-1.5391l-3.3781 2.1152-3.6859-2.9045 1.2549-3.7411c-0.92344-1.1208-1.7601-2.3283-2.3757-3.7096-0.17363-0.36306-0.23678-0.74191-0.37096-1.0971l-3.9384-0.86819-0.58405-4.6567 3.5201-1.7916c0.17364-1.9732 0.67876-3.8753 1.4996-5.659l-2.1231-3.2912 2.8572-3.7332 3.7332 1.2076c1.1523-0.9708 2.3994-1.839 3.8279-2.4862 0.41831-0.18943 0.85241-0.27625 1.2549-0.41831l0.82083-3.7569 4.6646-0.61562 1.7522 3.4333c1.9811 0.17364 3.8911 0.70245 5.6748 1.547l3.1728-2.0442 3.7253 2.865-1.1602 3.599c0.95501 1.1523 1.8232 2.3915 2.4704 3.82 0.18942 0.41042 0.26835 0.83662 0.41832 1.247l3.6622 0.76559 0.66299 4.6409-3.3781 1.768c-0.17364 2.0363-0.71034 4.0016-1.5864 5.8406zm-20.008 35.32-5.0592 0.29203c-1.3338 2.3678-3.0702 4.4594-5.1539 6.2036l0.69455 5.0592-5.5485 2.8808-3.7253-3.4491c-1.8706 0.49724-3.7964 0.86031-5.8327 0.86031-0.67877 0-1.3102-0.14997-1.9732-0.19733l-3.1728 4.1515-5.959-1.9021-0.18153-5.1934c-2.21-1.3023-4.1673-2.944-5.8169-4.8856l-5.2644 0.71823-2.8887-5.5564 3.5912-3.8595c-0.50513-1.8627-0.85241-3.7806-0.85241-5.809 0-0.52092 0.1105-1.0182 0.14996-1.5391l-4.2936-3.2123 1.839-5.9747 5.2644-0.23679c1.2865-2.3046 2.9519-4.3331 4.925-6.0379l-0.75768-5.1776 5.5091-2.9518 3.8753 3.5122c1.9337-0.5288 3.9069-0.90765 6.0063-0.90765 0.60773 0 1.176 0.13418 1.768 0.17363l3.0624-4.1042 5.9747 1.8153 0.25256 5.1223c2.2968 1.3102 4.341 2.9992 6.0458 5.0118l4.9645-0.74191 2.9519 5.517-3.3938 3.7411c0.5288 1.91 0.91555 3.899 0.91555 5.9905 0 0.59984-0.13418 1.1523-0.18942 1.7443l4.0331 2.9361zm22.107-120.32c-5.2802 4.5698-19.369 20.939-31.342 41.365-11.957 20.418-21.823 30.095-38.548 44.704-16.717 14.609-26.219 22.534-36.788 38.548-5.7458 8.7293-9.0845 16.701-10.947 22.17 7.7743 5.5564 17.253 8.8714 27.49 8.8714h48.003c26.14 0 47.514-21.373 47.53-47.506v-112.51c-1.618 1.2155-3.4807 2.6835-5.3986 4.3568"/>
   <path d="m69.593 52.475v-3.8674l-9.6843-9.8658 0.71033 20.773z"/>
   <path d="m10.972 138.73 1.0655-65.304-8.1058-10.931v83.804c1.9337-2.644 7.0403-7.5691 7.0403-7.5691"/>
   <path d="m97.759 51.774 0.34728-14.428-7.3954 9.6764 0.18154 14.081z"/>
   <path d="m70.117 117.6c22.541-19.542 27.648-30.631 41.902-51.752 13.023-19.29 25.722-29.905 32.936-36.433h-6.8114c-3.2912 3.1807-9.8816 9.6527-16.977 17.245-10.032 10.742-17.427 22.707-28.343 39.258-10.908 16.543-21.539 27.009-39.779 39.779-8.8082 6.1563-29.929 27.979-40.481 48.406-0.07893 0.14206-0.13418 0.23677-0.2131 0.37095 1.4917 2.1468 3.1492 4.1594 4.9566 6.0379 1.1997-2.5809 2.794-5.9116 4.9329-10.284 9.1555-18.666 25.351-33.086 47.877-52.628"/>
   <path d="m68.006 105.45c15.841-14.428 25.698-34.325 38.374-50.695 12.668-16.369 25.343-25.17 25.343-25.17l0.14995-0.17364h-4.3804c-0.0474 0.0395-4.7908 3.2044-12.668 10.734-7.9242 7.5691-17.427 20.071-27.103 35.201-9.6764 15.138-19.006 24.467-27.979 31.689-8.9818 7.2139-25.706 19.89-34.159 28.516-8.4451 8.6267-19.716 24.815-19.716 24.815l-0.1026 0.10261c0.59195 2.0679 1.2944 4.1042 2.1547 6.0537 1.1208-1.8311 11.507-18.5 23.473-30.797 12.676-13.031 20.773-15.841 36.614-30.276"/>
   <path d="m98.289 29.421h-8.2794v11.089l8.2794-8.8003z"/>
   <path d="m119.94 29.596 0.22099-0.17363h-16.725c0.17364 3.9937 0.62352 15.13 0.48145 15.13 4.7435-6.3378 16.022-14.957 16.022-14.957"/>
   <path d="m37.902 29.421h-17.072v11.436l17.072-10.205z"/>
   <path d="m59.74 29.421v4.4041l9.5028 8.2715v-12.676z"/>
   <path d="m94.718 151.04c-1.0655 0-1.9337-0.87609-1.9337-1.9337 0-1.0655 0.86819-1.9416 1.9337-1.9416 1.0655 0 1.9337 0.87608 1.9337 1.9416 0 1.0576-0.8682 1.9337-1.9337 1.9337m0-7.2139c-2.9203 0-5.2723 2.3599-5.2723 5.2802 0 2.9124 2.352 5.2802 5.2723 5.2802 2.9124 0 5.2802-2.3678 5.2802-5.2802 0-2.9203-2.3678-5.2802-5.2802-5.2802"/>
   <path d="m94.718 160.37c-6.2115 0-11.263-5.0434-11.263-11.263 0-6.2194 5.0513-11.263 11.263-11.263 6.2194 0 11.271 5.0434 11.271 11.263 0 6.2194-5.0513 11.263-11.271 11.263m0-26.748c-8.5556 0-15.478 6.9376-15.478 15.485 0 8.5556 6.9219 15.493 15.478 15.493 8.5477 0 15.493-6.9376 15.493-15.493 0-8.5478-6.9455-15.485-15.493-15.485"/>
   <path d="m123 115.78c-1.0024 0.44989-2.1547 8e-3 -2.5967-0.97869-0.45778-0.99448-0.0237-2.1468 0.97868-2.6046 0.97869-0.44198 2.1389-8e-3 2.573 0.99448 0.44989 0.97869 0.0395 2.1468-0.95501 2.5888m-2.5493-5.6117c-2.1152 0.96291-3.0466 3.4412-2.0994 5.5564 0.9629 2.1074 3.4412 3.0466 5.5643 2.0916 2.1073-0.95501 3.0545-3.4491 2.0837-5.5643-0.94712-2.0994-3.4333-3.0387-5.5486-2.0837"/>
   <path d="m125.1 120.45c-3.5675 1.618-7.7743 0.0316-9.3923-3.5359-1.6101-3.5754-0.0316-7.7822 3.5359-9.4002 3.5675-1.618 7.7822-0.0316 9.4002 3.5359 1.6259 3.5754 0.0237 7.7822-3.5438 9.4002m-7.3086-16.14c-5.3512 2.4152-7.7111 8.7056-5.2881 14.057 2.4152 5.3433 8.7056 7.7111 14.049 5.2881 5.3354-2.4073 7.7269-8.7056 5.3039-14.057-2.423-5.3512-8.7214-7.7111-14.065-5.2881"/>
   <path d="m36.145 114.96 0.5288-36.78-4.2226-4.4041-10.916 13.552 0.70244 39.779z"/>
   <path d="m37.562 34.349-16.551 13.023 0.34727 6.5193 10.213 10.379 5.6354-6.1563z"/>
   <path d="m21.358 75.707 6.5114-7.3954-6.6851-7.2139z"/>
   <path d="m12.559 29.421h-8.6267v23.094l8.6267 8.2399z"/>
   <path d="m35.445 68.144 1.7601 1.7601v-3.8753z"/>
  </g>
 </g>
</svg>
