<?xml version="1.0" encoding="UTF-8"?>
<svg width="445" height="654.86" enable-background="new 30.5 31.5 412 533" version="1.1" viewBox="30.5 31.5 445 654.86" xml:space="preserve" xmlns="http://www.w3.org/2000/svg" xmlns:cc="http://creativecommons.org/ns#" xmlns:dc="http://purl.org/dc/elements/1.1/" xmlns:rdf="http://www.w3.org/1999/02/22-rdf-syntax-ns#"><metadata><rdf:RDF><cc:Work rdf:about=""><dc:format>
          
          
          
          
          image/svg+xml
        
        
        
        
        </dc:format><dc:type rdf:resource="http://purl.org/dc/dcmitype/StillImage"/></cc:Work></rdf:RDF></metadata><path id="logo_kongsvingerkommune_skjold" d="m300.07 32.111 1.2632 16.616-6.8018 14.673c2.8179 4.9556-2.7207 16.195 6.1216 15.936l21.474 1.2632c3.1094-5.3443 1.6195-10.3 3.6924-15.936 11.128 0.31208 22.211 1.5471 33.135 3.6924l-0.58302 14.673c9.0254 2.1749 18.251 3.4123 27.531 3.6924 2.4292-4.1782 5.7329-8.8427 3.6924-14.089-4.1782-9.7166-9.8138-17.101-4.8584-28.276 30.414 2.9151 59.564 12.955 88.913 20.308l1.8462 1.8462-5.4414 12.826c-5.6358 3.6924-13.215 6.4779-16.033 12.955l-11.66 54.026c2.7499 1.4953 4.9342 3.8502 6.2188 6.7046 0.0972 3.8867 0.0972 7.7734-2.5264 10.494-2.3321 2.3321-8.0974 2.3321-6.7046 7.2877-4.7613 11.077 14.089 6.1216 8.5512 17.199l-383.01 3.2458c0.68018-5.6358 2.7207-11.758 8.6483-14.089 0.87613-3.4432 0.87613-7.051 0-10.494-3.8867-1.6195-10.786 1.3603-11.66-4.8584-2.1377-6.8018 3.0123-11.66 7.2877-14.77-5.4415-18.365-10.98-36.827-16.518-55.194-8.6483-6.899-20.502-9.7166-20.891-22.673l-1.2632-1.2632c22.057-9.911 47.71-13.798 71.257-21.474l17.199-3.6924c7.8706 9.7166 0.97166 21.28-1.2632 31.968 2.7207 3.5952 2.8179 8.2593 6.1216 11.66l30.123-3.6924c1.6195-5.15-0.38867-10.203-0.58301-15.353 11.077-1.9434 23.612-3.8867 34.3-3.1094-1.2235 4.9827-0.5661 10.242 1.8462 14.77l22.155-1.8462 1.8462-17.814c-7.482-7.482-8.8427-16.81-7.3849-26.43 30.609-0.34009 63.435-2.3968 93.96-0.77734z" stroke-width="1.6195"/><g fill="#fdc600" stroke-width="1.6195"><path d="m141.79 189.86 206.77-1.166c-67.824-6.1216-137.88-4.7613-206.77 1.166z"/><path d="m434.47 180.63c-69.767-10.689-143.32-12.244-217.27-12.826-46.058 4.5669-97.362 2.2349-140.5 14.089-2.7207 1.4899-6.4779 3.7895-4.8584 7.9678 117.87-23.256 248.1-17.004 366.33-0.58301 1.7166-1.0688 5.8301-0.0972 4.9556-3.6924-0.87456-3.8867-5.8301-3.1094-8.6484-4.9556z"/><path d="m434.47 174.51 0.68018-8.5512c-21.377-5.4414-45.475-4.3726-67.532-7.9678l-23.321-0.68018a1116.8 1116.8 0 0 0-235.05 3.6924c-10.397 1.8462-22.057 0.97166-31.288 5.5386l1.166 7.9678c116.99-20.211 239.62-11.952 355.35 0z"/><path d="m438.74 150.02c-120.19-14.187-252.35-21.669-370.6 3.6924-2.2349 2.6236-0.77734 6.5103 1.8462 7.9678 113.1-21.28 241.08-17.685 355.35-3.1094 6.3159-1.4575 18.948 6.3159 18.948-4.2754-1.8462-1.4575-3.1094-4.1782-5.5386-4.2754z"/><path d="m340.02 134.67a163.99 163.99 0 0 0 30.025 1.8462c0.80974-3.3361 3.498-7.0933 2.4292-9.8138a171.3 171.3 0 0 0-31.288-3.6924c0.58302 4.2754-3.5952 7.3849-1.166 11.66z"/><path d="m173.08 132.83c0.48585-3.6924-0.87455-6.5751-1.2632-9.8138-10.3 0.58301-20.016 2.4292-29.961 3.6924 1.166 2.8179 1.749 5.9273 3.6924 8.5512 9.0687-0.80974 18.689-0.68018 27.531-2.4292z"/><path d="m302.45 120.48-1.166 0.68018c1.749 3.5628-1.166 9.425 2.4292 11.66l30.77 0.58301c-0.45345-3.9191 0.77735-6.899 1.166-10.397z"/><path d="m177.94 123.01c-0.68018 3.5952 1.3603 6.1216 0.68018 9.8138a128.32 128.32 0 0 0 26.916-1.8462c-0.48584-3.8867 0.87455-6.9961 1.2632-10.494-9.6194 0.87455-19.628 0.77734-28.859 2.5264z"/><path d="m376.16 119.9 2.5264-9.8138-21.571-2.4292-1.749 9.8138c6.1216 2.6236 14.316 2.5264 20.794 2.4292z"/><path d="m350.41 117.47 0.58301-10.397-26.333-1.8462-1.2632 10.98c9.425-0.48584 17.587 3.5952 27.012 1.2632z"/><path d="m133.14 108.23 5.5386 12.26 19.628-2.4292-1.8462-12.842c-7.7734 0.97166-16.324 0.19434-23.321 3.0123z"/><path d="m319.12 104.55-19.045-1.166 0.58301 11.66 17.199 0.58301c0.38867-3.6924 2.0405-7.6764 1.2632-11.077z"/><path d="m186.58 102.12c-8.3889 0.19434-16.227 1.9434-24.584 2.4292a32.129 32.129 0 0 0 1.8462 13.506l23.903-2.4292z"/><path d="m209.22 101.5c-4.5669-0.77735-12.146-1.4575-17.101 0.58301l1.166 12.955a100.4 100.4 0 0 0 14.089-0.68018z"/><path d="m432.69 99.739c-19.013 7.1905-29.928 23.709-41.685 39.256l45.977 4.8584 9.8138-42.317c-3.5952-3.4009-9.425-1.2632-14.106-1.7976z"/><path d="m120.32 139 1.8624-1.8948c-17.604-16.033-33.442-46.447-61.459-34.348 2.5588 15.256 9.4574 28.762 12.955 43.629 15.547-2.528 30.802-5.5403 46.641-7.3864z"/><path d="m384.13 92.257-37.993-4.9556c-2.7207 3.5304-1.6519 9.263-1.8462 12.955 12.632 0.68018 25.847 3.5952 37.41 3.1094z"/><path d="m168.79 98.428c-0.48583-4.1458 0.97166-9.0039-1.2632-12.244-13.879 1.6518-28.551 1.4575-41.782 4.8584 2.6236 3.5628 2.4292 8.1621 4.9556 11.66z"/><path d="m338.17 99.011c0-4.1458 2.5264-8.1621 1.166-12.244l-41.103-2.4292c-1.6519 2.8179 0.38867 8.7455 0.58301 12.244 12.438 2.5264 26.625 2.6236 39.353 2.4292z"/><path d="m211.07 82.492a248.3 248.3 0 0 0-37.993 3.6924l1.8462 11.66 34.3-3.1094z"/><path d="m254.02 75.691c-4.6641 0.68018-6.5103 4.1782-10.397 6.8018-8.8427 14.673-10.3 32.357-17.199 47.904l52.762 1.749 2.5264-1.166c-1.4575-13.895-8.065-25.717-11.66-38.673-3.5952-6.7532-6.8018-15.936-16.033-16.616z"/><path d="m449.31 86.768c-16.599-6.4131-34.77-8.9399-52.212-12.923-7.0933 21.183-14.77 42.786-20.211 63.84a14.251 14.251 0 0 1 5.4414 0.68019c15.385-20.794 35.985-50.69 66.399-44.212 0.19433-2.4292 2.2025-4.9556 0.58302-7.3848z"/><path d="m129.45 137.1c3.6924 0.48584 6.5751-0.77735 9.8138-1.2632-7.9354-21.085-18.462-41.2-25.75-62.577l-4.8584 0.03239c-17.199 5.15-35.402 9.3278-51.597 15.353l1.8462 7.9678c32.552-12.47 51.694 19.693 70.544 40.487z"/><path d="m353.52 81.909c1.2632-2.7531-0.0972-6.6075 1.166-9.2306-7.1905-2.9151-15.936-2.0405-23.968-3.1094-3.3038 2.0405-2.7207 6.7046-3.1094 10.494a128.61 128.61 0 0 0 25.912 1.8462z"/><path d="m158.89 81.229 24.584-2.4292c-0.19433-3.3361 0.48585-6.899-0.58301-9.8138a111.55 111.55 0 0 0-25.167 3.6924c1.3604 2.4292-0.0972 6.1216 1.166 8.5512z"/><path d="m295.8 131.58c-1.8462-22.932-3.6924-46.544-5.5386-68.698-0.68018 0-1.4575 0.08098-1.8462-0.68018-22.997-0.87455-49.264-0.87455-69.962 0-4.0811 22.932-4.4698 45.086-6.7046 68.795 14.089 5.3443 9.7166-12.146 14.089-18.462 5.6358-14.964 9.3278-33.588 25.167-41.685a16.748 16.748 0 0 1 17.199 4.8584c10.397 17.393 15.353 37.119 20.794 56.455 2.3321-0.19596 4.9556 0.58139 6.8018-0.58301z"/><path d="m468.86 68.403a592.37 592.37 0 0 0-80.391-18.462l0.58301 6.8018c25.005 7.5792 51.435 11.758 76.116 20.211 3.1094-0.97166 4.2754-5.7329 3.6924-8.5512z"/><path d="m118.47 55.48c-1.0688-3.4009-0.0972-8.9399-6.2188-6.7694-25.069 7.0933-51.014 12.438-75.403 21.474l3.6924 8.5512c26.139-7.5144 52.6-14.122 78.512-22.673z"/><path id="logo_kongsvingerkommune_skjold_gul" d="m211.75 47.512c27.596-0.48584 55.969 0.77734 84.051 1.2632v-11.66l-69.962-0.68018c-4.7613 1.5547-11.563-0.58302-15.353 1.8462 0.97166 2.5264-2.1377 7.1905 1.2632 9.2306z"/></g><g stroke="#000"><g stroke-width="1px"><path d="m475 188.5v381.27c0 32.641-1.5438 45.448-15.833 60.726-17.275 18.471-41.987 24.006-71.972 24.006h-69.664c-36.395 0-54.645 17.178-64.531 30.996-9.8863-13.817-28.136-30.996-64.531-30.996h-69.664c-29.984 0-54.697-5.5352-71.972-24.006-14.289-15.278-15.833-28.085-15.833-60.726v-381.27h222 222z" fill-rule="evenodd"/><path d="m253 271.5v35.675" fill="none"/><path d="m253 188.5h-222v164.37c19.137-6.6151 66.802-27.012 83.374-34.631 34.348-15.793 35.105-20.345 72.296-39.494l66.33-0.95497 66.33 0.95497c37.191 19.149 37.948 23.701 72.296 39.494 16.571 7.6195 64.236 28.016 83.374 34.631v-164.37h-222" fill="#e00e00" fill-rule="evenodd"/></g><g stroke-width="1.5"><path d="m176.97 272.16-5.8094 14.006h-37.482l-5.889 14.643h-25.147l-12.096 28.041 120.33 2.5182 42.124 34.06 42.124-34.06 120.33-2.5182-12.096-28.041h-25.147l-5.889-14.643h-37.482l-5.8094-14.006h-76.025-76.025z" fill="#fff" fill-rule="evenodd"/><path d="m221.38 272.16-10.505 59.208" fill="none"/><path d="m253 272.16v93.268" fill="none"/></g></g><path d="m297.4 561.8c22.2 0 22.2-8.1543 44.4-8.1543s22.2 8.1543 44.4 8.1543 22.2-8.1543 44.4-8.1543 22.2 8.1543 44.4 8.1543v-82c-22.2 0-22.2-8.1543-44.4-8.1543s-22.2 8.1543-44.4 8.1543-22.2-8.1543-44.4-8.1543-22.2 8.1543-44.4 8.1543-22.2-8.1543-44.4-8.1543-22.2 8.1543-44.4 8.1543-22.2-8.1543-44.4-8.1543-22.2 8.1543-44.4 8.1543-22.2-8.1543-44.4-8.1543-22.2 8.1543-44.4 8.1543v82c22.2 0 22.2-8.1543 44.4-8.1543s22.2 8.1543 44.4 8.1543 22.2-8.1543 44.4-8.1543 22.2 8.1543 44.4 8.1543 22.2-8.1543 44.4-8.1543 22.2 8.1543 44.4 8.1543z" fill="#fff" fill-rule="evenodd"/><path d="m284.62 272.16 10.505 59.208" fill="none" stroke="#000" stroke-width="1.5"/><path d="m253 322.77 36.939-20.596 51.023-1.3679-5.9567-14.296-47.317 3.059-34.689 17.603-34.689-17.603-47.317-3.059-5.9567 14.296 51.023 1.3679 36.939 20.596" fill-rule="evenodd" stroke="#000" stroke-width="1.5"/><g fill="none" stroke="#000"><path d="m165.04 300.8h-37.244" stroke-width="1.5"/><path d="m340.96 300.8h37.244" stroke-width="1.5"/><path d="m31 561.8c22.2 0 22.2-8.1543 44.4-8.1543s22.2 8.1543 44.4 8.1543 22.2-8.1543 44.4-8.1543 22.2 8.1543 44.4 8.1543 22.2-8.1543 44.4-8.1543 22.2 8.1543 44.4 8.1543 22.2-8.1543 44.4-8.1543 22.2 8.1543 44.4 8.1543 22.2-8.1543 44.4-8.1543 22.2 8.1543 44.4 8.1543m0-82c-22.2 0-22.2-8.1543-44.4-8.1543s-22.2 8.1543-44.4 8.1543-22.2-8.1543-44.4-8.1543-22.2 8.1543-44.4 8.1543-22.2-8.1543-44.4-8.1543-22.2 8.1543-44.4 8.1543-22.2-8.1543-44.4-8.1543-22.2 8.1543-44.4 8.1543-22.2-8.1543-44.4-8.1543-22.2 8.1543-44.4 8.1543" stroke-width="1px"/><path d="m475 188.5v381.27c0 32.641-1.5438 45.448-15.833 60.726-17.275 18.471-41.987 24.006-71.972 24.006h-69.664c-36.395 0-54.645 17.178-64.531 30.996-9.8863-13.817-28.136-30.996-64.531-30.996h-69.664c-29.984 0-54.697-5.5352-71.972-24.006-14.289-15.278-15.833-28.085-15.833-60.726v-381.27h222 222z" stroke-width="1px"/></g></svg>
